<svg width="124" height="124" viewBox="0 0 124 124" fill="none" xmlns="http://www.w3.org/2000/svg">
<circle cx="62" cy="62" r="62" fill="#D9D9D9"/>
<g clip-path="url(#clip0_193_1059)">
<path d="M102 61.6034C102.004 56.2749 100.972 50.9979 98.9656 46.0736C96.9587 41.1493 94.0153 36.6743 90.3035 32.9039C86.5917 29.1335 82.1841 26.1417 77.3325 24.0992C72.4808 22.0567 67.2801 21.0036 62.0272 21C56.7743 20.9964 51.5722 22.0423 46.7178 24.0781C41.8634 26.1139 37.4518 29.0996 33.735 32.8649C30.0181 36.6301 27.0687 41.1011 25.0552 46.0226C23.0418 50.9441 22.0036 56.2197 22 61.5482C22 61.5666 22 61.585 22 61.6034C22 61.6906 22.0059 61.7764 22.0065 61.8643C22.0059 61.9507 22 62.0372 22 62.1244C21.994 68.5669 23.5074 74.9174 26.4139 80.6458L26.5747 80.4431L30.879 75.0497C27.5237 67.0766 27.262 58.112 30.1465 49.9516C33.031 41.7911 38.8486 35.0376 46.4338 31.0438C54.019 27.0501 62.8117 26.1111 71.0506 28.4149C79.2894 30.7187 86.3659 36.0952 90.8624 43.4674C95.359 50.8395 96.9435 59.6629 95.2986 68.17C93.6537 76.677 88.9009 84.2395 81.9922 89.3424C75.0835 94.4454 66.5292 96.7119 58.0428 95.688C49.5565 94.6642 41.7649 90.4255 36.2289 83.8211L29.9657 85.905L29.6674 86.0033C34.6363 92.9284 41.6383 98.0806 49.6704 100.722C57.7024 103.363 66.3526 103.358 74.3817 100.708C82.4108 98.0571 89.407 92.8968 94.3681 85.966C99.3292 79.0353 102.001 70.6896 102 62.1244C102 62.0373 101.994 61.9507 101.994 61.8643C101.994 61.7763 102 61.6905 102 61.6034Z" fill="#BE1E2D"/>
<path d="M39.5062 79.7554C43.8469 85.4369 50.1219 89.2702 57.1026 90.5047C64.0833 91.7393 71.2669 90.2862 77.2469 86.43C83.2269 82.5738 87.5725 76.5921 89.433 69.6563C91.2934 62.7205 90.5347 55.33 87.3054 48.9319C84.076 42.5337 78.6086 37.5888 71.9737 35.0652C65.3388 32.5416 58.0142 32.6211 51.434 35.2882C44.8539 37.9553 39.4921 43.0179 36.3985 49.4847C33.3049 55.9515 32.7024 63.3567 34.7088 70.2506C35.0329 71.3838 35.4261 72.4955 35.8858 73.5794L32.3141 78.0545L28.1721 83.2467L27.9883 83.4778L27.8665 83.6298L28.0464 83.5701L28.3199 83.4791L34.4149 81.4503L39.5062 79.7554ZM37.9983 76.13L38.0138 76.1106L39.4377 74.3336L42.5033 70.507L42.4848 70.4682C40.1646 65.197 39.9237 59.2242 41.8119 53.7784C43.7 48.3325 47.5736 43.8276 52.6359 41.1902C57.6982 38.5527 63.5643 37.9833 69.0278 39.599C74.4913 41.2147 79.1368 44.8927 82.0088 49.8765C84.8808 54.8602 85.761 60.771 84.4684 66.3929C83.1757 72.0149 79.8085 76.9207 75.0592 80.1013C70.31 83.2819 64.5398 84.4956 58.9354 83.4926C53.331 82.4897 48.3185 79.3464 44.9288 74.7093L40.9558 76.0315L38.4627 76.862L38.4406 76.8694L37.7154 77.1109L37.0298 77.339L37.5001 76.7516L37.9983 76.13Z" fill="#BE1E2D"/>
<path d="M46.2146 57.9733H47.2395C47.5894 57.9804 47.9381 57.9295 48.2719 57.8226C48.5366 57.7359 48.7811 57.5954 48.9906 57.4097C49.1767 57.2407 49.3211 57.0299 49.4124 56.794C49.5052 56.5507 49.5518 56.2917 49.5498 56.0308C49.5515 55.7662 49.5074 55.5033 49.4196 55.2541C49.3364 55.0143 49.2008 54.7967 49.0229 54.6176C48.8298 54.4271 48.5985 54.2811 48.3447 54.1897C48.0331 54.0805 47.705 54.028 47.3754 54.0348H45.2351V60.974H46.2146V57.9733ZM46.2146 54.9276H47.3726C47.5626 54.9222 47.7518 54.9547 47.9295 55.023C48.0656 55.0769 48.1882 55.161 48.2881 55.2691C48.376 55.3664 48.4413 55.4825 48.4791 55.6089C48.5165 55.731 48.5356 55.8582 48.5357 55.9861C48.5384 56.1444 48.5092 56.3017 48.4497 56.4481C48.3949 56.5801 48.3121 56.6981 48.2073 56.794C48.0966 56.8915 47.9669 56.9641 47.8266 57.0071C47.6651 57.0568 47.4971 57.0809 47.3285 57.0787H46.2146V54.9276Z" fill="#231F20"/>
<path d="M51.5131 58.927H54.4221L55.3331 60.9737H56.3369L53.2765 53.9941H52.5858L49.6475 60.9737H50.6512L51.5131 58.927ZM52.9186 55.5191L54.0209 58.0325H51.8952L52.9186 55.5191Z" fill="#231F20"/>
<path d="M62.557 60.9737H63.5607V60.0792H62.9581L60.5877 53.9941H59.8977L57.6397 60.0792H57.0374V60.9737H62.557ZM60.2306 55.449L61.9648 60.0792H58.6244L60.2306 55.449Z" fill="#231F20"/>
<path d="M69.2276 55.8776V60.9731H70.2057V54.0352H69.7272L65.3918 59.3153V54.0352H64.4121V61.0631H64.8831L69.2276 55.8776Z" fill="#231F20"/>
<path d="M71.8711 59.2666C72.0192 59.5312 72.2005 59.7753 72.4104 59.9926C72.6243 60.215 72.8676 60.4062 73.1333 60.5606C73.4132 60.7249 73.7138 60.8497 74.0269 60.9317C74.3686 61.0214 74.7203 61.0655 75.0732 61.063C75.6056 61.0716 76.1343 60.9718 76.628 60.7693C77.064 60.5901 77.4599 60.3234 77.7918 59.9852C78.1069 59.6598 78.3543 59.2736 78.5193 58.8493C78.6874 58.4221 78.7727 57.9661 78.7706 57.5061C78.7732 57.0366 78.6863 56.5709 78.5149 56.1347C78.3472 55.711 78.0974 55.3257 77.7801 55.0018C77.4481 54.6694 77.0546 54.4069 76.6221 54.2295C76.1362 54.0332 75.6168 53.9365 75.0938 53.9448C74.5766 53.9371 74.0631 54.0339 73.5831 54.2295C73.1501 54.4073 72.7564 54.6708 72.425 55.0047C72.1063 55.3294 71.8541 55.715 71.683 56.1392C71.3927 56.865 71.3411 57.6665 71.5359 58.4245C71.6107 58.7189 71.7234 59.0021 71.8711 59.2666ZM72.6352 56.4448C72.7634 56.1307 72.9528 55.8462 73.1922 55.6084C73.4335 55.3697 73.7192 55.1822 74.0328 55.0569C74.7166 54.7925 75.4724 54.7925 76.1562 55.0569C76.4713 55.1818 76.7586 55.3693 77.0013 55.6084C77.2397 55.8467 77.4286 56.1311 77.5568 56.4448C77.8252 57.1225 77.8252 57.8793 77.5568 58.5571C77.4287 58.8736 77.2385 59.1604 76.9977 59.4C76.7569 59.6396 76.4706 59.8271 76.1562 59.951C75.4724 60.2151 74.7166 60.2151 74.0328 59.951C73.7195 59.8258 73.4342 59.6378 73.1941 59.3983C72.954 59.1589 72.7639 58.8728 72.6352 58.5571C72.3668 57.8793 72.3668 57.1225 72.6352 56.4448Z" fill="#231F20"/>
<path d="M46.0186 63.6064H46.0351L47.7341 65.7725H47.865L49.5654 63.6064H49.582V67.963H50.372V62.3623H49.6377L47.8003 64.6627L45.9719 62.3623H45.2285V67.963H46.0186V63.6064Z" fill="#231F20"/>
<path d="M54.2854 62.2884C53.8678 62.2828 53.4532 62.3614 53.0658 62.5195C52.7162 62.6629 52.3984 62.8757 52.1311 63.1456C51.8732 63.4073 51.6696 63.7187 51.5323 64.0616C51.3908 64.4111 51.3189 64.7855 51.3206 65.1633C51.3198 65.4137 51.351 65.6632 51.4133 65.9056C51.5048 66.2656 51.6658 66.6035 51.887 66.8998C52.1082 67.1962 52.3853 67.445 52.702 67.6319C52.9285 67.7632 53.1711 67.8635 53.4236 67.93C53.7 68.0022 53.9846 68.0373 54.2701 68.0344C54.6997 68.0419 55.1265 67.9618 55.5251 67.7989C55.8763 67.6534 56.1955 67.4385 56.4641 67.1668C56.7181 66.9034 56.9177 66.5912 57.0511 66.2484C57.3241 65.5445 57.3225 64.7615 57.0468 64.0587C56.9122 63.7158 56.7105 63.4042 56.4539 63.1426C56.1862 62.8741 55.8685 62.6622 55.5192 62.5195C55.127 62.3608 54.7077 62.2822 54.2854 62.2884ZM56.2738 64.309C56.4902 64.8558 56.4902 65.4662 56.2738 66.0129C56.1704 66.2682 56.0169 66.4995 55.8226 66.6927C55.6284 66.886 55.3974 67.0371 55.1438 67.137C54.5919 67.3515 53.9813 67.3515 53.4295 67.137C53.1763 67.0365 52.9459 66.8851 52.7519 66.6919C52.558 66.4988 52.4045 66.2678 52.3008 66.0129C52.0853 65.466 52.0853 64.856 52.3008 64.309C52.4041 64.0552 52.5568 63.825 52.7497 63.6323C52.945 63.4398 53.1761 63.2886 53.4295 63.1874C53.9813 62.9727 54.5919 62.9727 55.1438 63.1874C55.3979 63.2884 55.6297 63.4396 55.8256 63.6323C56.0184 63.825 56.1708 64.0552 56.2738 64.309Z" fill="#231F20"/>
<path d="M60.8999 67.2976C60.5901 67.3005 60.2823 67.2481 59.9904 67.1427C59.7287 67.046 59.4888 66.897 59.2849 66.7044C59.0882 66.5157 58.9327 66.2871 58.8287 66.0335C58.718 65.7604 58.6628 65.4673 58.6663 65.172C58.663 64.8777 58.7195 64.5859 58.8323 64.3147C58.9389 64.0588 59.0957 63.8276 59.2931 63.635C59.4957 63.443 59.7323 63.2915 59.9904 63.1885C60.2704 63.0786 60.5683 63.0235 60.8685 63.026C61.0263 63.026 61.1839 63.0375 61.3401 63.0604C61.4969 63.0838 61.6517 63.1197 61.803 63.1677C61.9632 63.2183 62.1203 63.2788 62.2732 63.3487C62.432 63.4234 62.5981 63.5098 62.77 63.6111V62.7502C62.5819 62.6698 62.4055 62.6012 62.238 62.5431C62.0705 62.4864 61.9089 62.4373 61.756 62.3985C61.6084 62.3615 61.4587 62.3336 61.3077 62.315C61.1646 62.2973 61.0206 62.2883 60.8765 62.2881C60.5952 62.287 60.3148 62.321 60.0417 62.3895C59.7871 62.4533 59.5415 62.5494 59.3107 62.6757C59.0891 62.7977 58.885 62.9496 58.7038 63.1274C58.5243 63.3022 58.3693 63.501 58.243 63.7184C58.1144 63.9416 58.0161 64.1812 57.9506 64.431C57.8813 64.696 57.8467 64.9692 57.8477 65.2434C57.8491 65.4505 57.875 65.6568 57.9249 65.8577C57.9785 66.0769 58.0574 66.289 58.1599 66.4896C58.2695 66.7023 58.4042 66.9006 58.5613 67.0801C58.7285 67.2717 58.9217 67.4383 59.1351 67.575C59.3693 67.722 59.6225 67.8354 59.8875 67.9119C60.194 67.9976 60.5109 68.0388 60.8288 68.0341C61.0287 68.035 61.2284 68.0231 61.4268 67.9983C61.603 67.9765 61.7778 67.9436 61.95 67.9C62.2557 67.8174 62.5507 67.6983 62.8288 67.5452V66.6626C62.5295 66.863 62.2053 67.0225 61.8648 67.1367C61.5535 67.2413 61.2279 67.2956 60.8999 67.2976Z" fill="#231F20"/>
<path d="M64.5924 65.2915C64.7428 65.2896 64.8928 65.3066 65.039 65.3422C65.1679 65.3737 65.2884 65.4338 65.3917 65.518C65.5169 65.6185 65.6269 65.737 65.718 65.8699C65.8501 66.0567 65.9718 66.2508 66.0825 66.4513L66.9407 67.9629H67.8415L66.8701 66.2544C66.7584 66.0548 66.66 65.8908 66.5747 65.7566C66.4979 65.6357 66.4119 65.5211 66.3175 65.4138C66.2352 65.3216 66.1425 65.2395 66.0414 65.1692C65.9282 65.0958 65.8098 65.031 65.6872 64.9755C65.7703 64.9343 65.847 64.881 65.915 64.8174C65.9923 64.7449 66.0635 64.6662 66.1281 64.5818C66.1955 64.4912 66.2569 64.3961 66.3117 64.2971C66.3647 64.2007 66.4099 64.1 66.447 63.9961C66.5043 63.8351 66.5601 63.6949 66.6144 63.5786C66.6614 63.4717 66.7277 63.3746 66.8099 63.2924C66.8908 63.2176 66.988 63.1632 67.0936 63.1337C67.2375 63.0961 67.3858 63.079 67.5343 63.083V62.3615H67.4109C67.2353 62.359 67.06 62.379 66.8892 62.4211C66.7374 62.4607 66.5953 62.5317 66.4719 62.6297C66.3363 62.7403 66.22 62.8734 66.1281 63.0233C66.0085 63.2193 65.9071 63.4261 65.8253 63.6412C65.7602 63.818 65.6779 63.9878 65.5798 64.1481C65.5095 64.2646 65.4195 64.3675 65.314 64.4522C65.2185 64.523 65.1093 64.5723 64.9936 64.5968C64.8617 64.6246 64.7271 64.6376 64.5924 64.6356V62.3616H63.8018V67.9629H64.5924V65.2915Z" fill="#231F20"/>
<path d="M68.6128 67.9632H70.5057C70.8046 67.9707 71.1024 67.9253 71.3859 67.829C71.603 67.7523 71.8026 67.6316 71.9723 67.4742C72.1159 67.3405 72.2274 67.1753 72.2986 66.9913C72.364 66.8253 72.3984 66.6483 72.3999 66.4695C72.4015 66.2904 72.3706 66.1125 72.3088 65.9447C72.2495 65.7856 72.1601 65.6398 72.0458 65.5155C71.9253 65.3863 71.7836 65.2793 71.627 65.1993C71.4519 65.1094 71.2647 65.0461 71.0714 65.0116V64.9937C71.3255 64.9031 71.5482 64.7394 71.7122 64.5226C71.8527 64.3069 71.9231 64.052 71.9135 63.7936C71.9131 63.6147 71.8797 63.4376 71.8151 63.2712C71.7475 63.0965 71.6426 62.9392 71.5079 62.8105C71.3546 62.6683 71.1754 62.5579 70.9803 62.4855C70.7345 62.3979 70.4752 62.356 70.2147 62.3619H68.6128V67.9632ZM69.4034 63.0833H70.1354C70.2896 63.0799 70.4434 63.1015 70.5909 63.1474C70.7009 63.1825 70.8022 63.2412 70.8878 63.3196C70.9611 63.3869 71.0162 63.4721 71.0479 63.567C71.0793 63.6643 71.0952 63.7659 71.095 63.8682C71.1047 63.9956 71.0839 64.1235 71.0345 64.2411C70.9852 64.3586 70.9086 64.4624 70.8113 64.5435C70.5479 64.71 70.2391 64.7873 69.9295 64.7641H69.4034V63.0833ZM69.4034 65.4855H70.3602C70.5431 65.4819 70.7255 65.504 70.9024 65.5512C71.0394 65.5855 71.1687 65.6463 71.2831 65.7301C71.379 65.8015 71.4562 65.8957 71.5079 66.0044C71.5581 66.1146 71.5832 66.2349 71.5814 66.3562C71.581 66.4628 71.5631 66.5686 71.5284 66.6692C71.491 66.7794 71.4262 66.878 71.3403 66.9554C71.2348 67.0481 71.1118 67.1181 70.9788 67.1612C70.7915 67.2201 70.5958 67.2473 70.3998 67.2416H69.4034L69.4034 65.4855Z" fill="#231F20"/>
<path d="M76.2796 65.2078C76.1081 65.0499 75.9072 64.9283 75.6888 64.85C75.4206 64.758 75.1387 64.7137 74.8556 64.7188H73.962V62.3613H73.1714V67.9626H74.8791C75.1507 67.9672 75.421 67.9249 75.6786 67.8375C75.8954 67.7633 76.0953 67.6456 76.2664 67.4916C76.4213 67.3503 76.5438 67.1763 76.625 66.9817C76.7075 66.7837 76.7494 66.5707 76.7484 66.3557C76.7503 66.1402 76.7103 65.9264 76.6309 65.7265C76.5552 65.5282 76.4349 65.3506 76.2796 65.2078ZM75.8813 66.6926C75.8505 66.7948 75.7972 66.8885 75.7256 66.9668C75.6445 67.0546 75.545 67.1229 75.4345 67.1666C75.2899 67.2209 75.1362 67.2462 74.982 67.2411H73.962V65.4403H74.982C75.1175 65.4382 75.2522 65.4625 75.3787 65.5118C75.49 65.553 75.5911 65.6184 75.6748 65.7034C75.7586 65.7884 75.8231 65.8909 75.8637 66.0038C75.9089 66.1268 75.9313 66.2572 75.9298 66.3884C75.9295 66.4917 75.9131 66.5944 75.8813 66.6926Z" fill="#231F20"/>
<path d="M78.5192 62.3613H77.7288V67.9626H78.5192V62.3613Z" fill="#231F20"/>
</g>
<defs>
<clipPath id="clip0_193_1059">
<rect width="80" height="81.7021" fill="white" transform="translate(22 21)"/>
</clipPath>
</defs>
</svg>
