<svg width="42" height="42" viewBox="0 0 42 42" fill="none" xmlns="http://www.w3.org/2000/svg">
<path d="M12.8093 32.9989C14.8478 32.9412 16.4632 31.2296 16.4055 29.1719C16.3478 27.2104 14.7708 25.6334 12.8093 25.5757C10.7708 25.518 9.05921 27.1334 9.00152 29.1719C8.94382 31.2296 10.54 32.922 12.5977 32.9989H12.8093Z" fill="black"/>
<path d="M20.8868 32.2691C20.8868 32.5191 20.8676 32.7499 20.8484 32.9999H25.233C25.233 32.7499 25.2715 32.5191 25.2715 32.2691C25.2138 23.7497 18.3483 16.8458 9.84821 16.7881C9.59821 16.7881 9.36744 16.8073 9.11743 16.8265V21.2305C9.36744 21.2112 9.59821 21.192 9.84821 21.192C15.9252 21.2305 20.8291 26.1728 20.8868 32.2691Z" fill="black"/>
<path d="M9.84821 8C9.59821 8 9.36744 8.03846 9.11743 8.03846V12.4231C9.36744 12.4231 9.59821 12.3847 9.84821 12.3847C20.7522 12.4424 29.5793 21.3079 29.6369 32.2503C29.6369 32.5003 29.6177 32.7311 29.5985 32.9811H33.9639C33.9639 32.7311 34.0024 32.5003 34.0024 32.2503C33.9639 18.8848 23.1753 8.03846 9.84821 8Z" fill="black"/>
<rect x="0.5" y="0.5" width="41" height="41" rx="4.5" stroke="black"/>
</svg>
