<svg width="42" height="42" viewBox="0 0 42 42" fill="none" xmlns="http://www.w3.org/2000/svg">
<path d="M34.8249 8.98169C34.3211 8.55445 33.5297 8.49332 32.7115 8.82181H32.7102C31.8497 9.1671 8.3516 19.2461 7.39501 19.6579C7.22103 19.7184 5.70151 20.2854 5.85803 21.5483C5.99776 22.6869 7.21901 23.1585 7.36814 23.2129L13.3421 25.2584C13.7384 26.5777 15.1995 31.4453 15.5226 32.4851C15.7241 33.1334 16.0526 33.9852 16.6283 34.1605C17.1335 34.3553 17.636 34.1773 17.9611 33.922L21.6134 30.5344L27.5094 35.1325L27.6498 35.2165C28.0502 35.3939 28.4338 35.4825 28.7999 35.4825C29.0827 35.4825 29.3541 35.4295 29.6134 35.3233C30.4967 34.9606 30.8501 34.1189 30.887 34.0235L35.2911 11.132C35.5598 9.90939 35.1863 9.28734 34.8249 8.98169ZM18.6107 26.0766L16.5954 31.4506L14.5801 24.7331L30.0305 13.3132L18.6107 26.0766Z" fill="black"/>
<rect x="0.5" y="0.5" width="41" height="41" rx="4.5" stroke="black"/>
</svg>
