<svg width="42" height="42" viewBox="0 0 42 42" fill="none" xmlns="http://www.w3.org/2000/svg">
<path d="M34.6312 14.0133C34.304 12.7641 33.3399 11.7804 32.1157 11.4466C29.8971 10.8398 21 10.8398 21 10.8398C21 10.8398 12.1029 10.8398 9.88413 11.4466C8.66006 11.7804 7.69594 12.7641 7.36874 14.0133C6.77417 16.2773 6.77417 21.0011 6.77417 21.0011C6.77417 21.0011 6.77417 25.7248 7.36874 27.989C7.69594 29.2382 8.66006 30.2218 9.88413 30.5559C12.1029 31.1624 21 31.1624 21 31.1624C21 31.1624 29.8971 31.1624 32.1158 30.5559C33.3399 30.2218 34.304 29.2382 34.6314 27.989C35.2258 25.7248 35.2258 21.0011 35.2258 21.0011C35.2258 21.0011 35.2258 16.2773 34.6312 14.0133ZM18.0902 25.29V16.7123L25.5264 21.0013L18.0902 25.29Z" fill="black"/>
<rect x="0.5" y="0.5" width="41" height="41" rx="4.5" stroke="black"/>
</svg>
