<?xml version="1.0" standalone="no"?>
<!DOCTYPE svg PUBLIC "-//W3C//DTD SVG 1.1//EN" "http://www.w3.org/Graphics/SVG/1.1/DTD/svg11.dtd" >
<svg xmlns="http://www.w3.org/2000/svg" xmlns:xlink="http://www.w3.org/1999/xlink" version="1.1">
<metadata>
Created by FontForge 20170731 at Sun Mar 27 21:15:10 2022
 By Aleksey,,,
</metadata>
<defs>
<font id="Novelist-Display" horiz-adv-x="506" >
  <font-face 
    font-family="Novelist"
    font-weight="400"
    font-stretch="normal"
    units-per-em="1000"
    panose-1="0 0 0 0 0 0 0 0 0 0"
    ascent="750"
    descent="-250"
    x-height="700"
    cap-height="700"
    bbox="-7 -123 1373 802"
    underline-thickness="50"
    underline-position="-225"
    unicode-range="U+000D-2014"
  />
<missing-glyph horiz-adv-x="250" 
 />
    <glyph glyph-name=".notdef" horiz-adv-x="250" 
 />
    <glyph glyph-name="uni0000" horiz-adv-x="0" 
 />
    <glyph glyph-name="uni0000" horiz-adv-x="0" 
 />
    <glyph glyph-name="uni000D" unicode="&#xd;" horiz-adv-x="250" 
 />
    <glyph glyph-name="space" unicode=" " horiz-adv-x="260" 
 />
    <glyph glyph-name="exclam" unicode="!" horiz-adv-x="93" 
d="M60 100h-15l-25 530q0 8 -2 29.5t-2.5 34t1 28.5t9 23.5t20.5 7.5q12 0 18.5 -8.5t8.5 -25t2 -29.5t-1.5 -34t-1.5 -26zM29 17q0 12 7.5 19t17.5 7q24 0 24 -26q0 -10 -7 -17.5t-17 -7.5t-17.5 7.5t-7.5 17.5z" />
    <glyph glyph-name="quotedbl" unicode="&#x22;" horiz-adv-x="148" 
d="M25 635q2 23 -4 39.5t-6 25.5q0 12 8 19t18 7t17 -7t7 -19q0 -30 -35 -67zM93 635q2 23 -4 39.5t-6 25.5q0 12 8 19t18 7t17 -7t7 -19q0 -30 -35 -67z" />
    <glyph glyph-name="numbersign" unicode="#" horiz-adv-x="651" 
d="M265 480l80 234h17l-80 -234h143l80 234h17l-80 -234h194v-17h-199l-66 -193h230v-17h-236l-86 -253h-17l86 253h-143l-86 -253h-17l86 253h-173v17h179l66 193h-210v17h215zM277 463l-66 -193h143l66 193h-143z" />
    <glyph glyph-name="percent" unicode="%" horiz-adv-x="658" 
d="M164 743q69 0 116 -49t47 -120q0 -66 -41.5 -111.5t-107.5 -45.5q-69 0 -116 50t-47 119q0 66 41.5 111.5t107.5 45.5zM153 0l337 732h17l-337 -732h-17zM193 436q49 0 81 31t32 79q0 81 -40 129t-115 48q-51 0 -85 -32t-34 -83q0 -74 45.5 -123t115.5 -49zM480 320
q70 0 117 -48.5t47 -119.5q0 -66 -42 -111.5t-108 -45.5q-70 0 -116.5 49.5t-46.5 119.5q0 66 41.5 111t107.5 45zM510 14q50 0 81.5 30.5t31.5 79.5q0 81 -40 129t-115 48q-51 0 -85 -32t-34 -83q0 -74 45.5 -123t115.5 -49z" />
    <glyph glyph-name="ampersand" unicode="&#x26;" horiz-adv-x="547" 
d="M446 185q0 -57 -28 -102q24 -22 72 -68l47 -5v-10h-150v10l47 5q-14 12 -40 36q-67 -70 -172 -70q-84 0 -145.5 53.5t-61.5 149.5q0 54 30 99t75 69q-69 107 -69 187q0 92 55.5 133.5t140.5 41.5q63 0 109 -43.5t46 -101.5q0 -52 -16.5 -86.5t-62.5 -73.5l31 11l2 -4
l-61 -28l-3 4q26 16 42.5 36t22.5 44.5t7 38.5t1 37v8q0 53 -40 96t-103 43q-130 0 -130 -146q0 -44 19.5 -93.5t46.5 -91t73.5 -94t82 -87.5t89.5 -86q21 39 21 88q0 59 -22.5 109.5t-63.5 76.5l3 5l79 -39l-3 -5l-43 19q36 -36 54 -71t18 -95zM380 63q-176 162 -254 279
q-67 -33 -67 -163q0 -90 56 -135.5t124 -45.5q87 0 141 65z" />
    <glyph glyph-name="quotesingle" unicode="'" horiz-adv-x="80" 
d="M41 675q-11 0 -18.5 7.5t-7.5 17.5q0 12 8 19t18 7t17 -7t7 -19q0 -38 -46 -64l-2 2q24 21 24 37z" />
    <glyph glyph-name="parenleft" unicode="(" horiz-adv-x="229" 
d="M206 757l3 -3q-77 -101 -118 -197t-42 -226q-1 -103 21 -187.5t49.5 -134t79.5 -123.5l-3 -4q-79 94 -123 192.5t-52 208.5t38 231t147 243z" />
    <glyph glyph-name="parenright" unicode=")" horiz-adv-x="232" 
d="M20 754l3 3q103 -119 149.5 -240t38.5 -232t-53 -210.5t-125 -192.5l-3 4q52 74 79.5 123.5t49.5 134t21 187.5q-1 130 -42 226t-118 197z" />
    <glyph glyph-name="asterisk" unicode="*" horiz-adv-x="329" 
d="M311 489q-16 -8 -22 -8q-8 0 -24 10q-9 4 -28 23q-22 23 -52 42q-7 5 -8 5q-7 0 -7 -10v-5q6 -44 11 -66q6 -24 6 -36q0 -16 -4 -22t-19 -15q-16 9 -19.5 15t-3.5 22q0 12 6 36q5 22 11 66v4q0 4 -2 7t-4 3l-2 1q-2 0 -9 -5q-27 -24 -48 -45q-13 -12 -27 -26l-19 -13
q-6 0 -24 10q-1 5 -1 13q0 6 0.5 9t5 8t14.5 9q14 6 32 15q28 15 60 30q19 11 3 21q-42 16 -61 23q-9 4 -21 9t-13 5q-15 7 -18.5 13t-3.5 24q15 11 23.5 11t20.5 -10q4 -3 29 -24q21 -15 50 -40q9 -5 13 -4q2 1 2 6v4q-2 10 -10 65q-4 21 -6 37q-2 5 -2 13q0 12 24 26
q23 -12 23 -27q0 -7 -1 -12q-3 -12 -6 -37q-8 -55 -10 -65q-1 -2 -1 -6q0 -6 7 -6q2 0 6 4q28 21 48 46q14 18 25 26q14 11 24 11q9 0 22 -6v-8q0 -13 -3.5 -20t-17.5 -15q-9 -6 -30 -15q-31 -13 -62 -30q-6 -4 -6 -11q0 -2 9 -7q32 -14 62 -24q25 -8 34 -13q15 -9 19.5 -16
t4.5 -25z" />
    <glyph glyph-name="plus" unicode="+" horiz-adv-x="365" 
d="M20 271v17h325v-17h-325zM191 123h-17v325h17v-325z" />
    <glyph glyph-name="comma" unicode="," horiz-adv-x="80" 
d="M41 -8q-11 0 -18 7.5t-7 17.5q0 12 7.5 19t17.5 7t17 -7t7 -19q0 -38 -46 -64l-2 2q24 21 24 37z" />
    <glyph glyph-name="hyphen" unicode="-" horiz-adv-x="275" 
d="M20 291v17h235v-17h-235z" />
    <glyph glyph-name="period" unicode="." horiz-adv-x="80" 
d="M16 17q0 12 7.5 19t17.5 7t16.5 -7t6.5 -19q0 -10 -6.5 -17.5t-16.5 -7.5q-11 0 -18 7.5t-7 17.5z" />
    <glyph glyph-name="slash" unicode="/" horiz-adv-x="344" 
d="M37 0h-17l287 732h17z" />
    <glyph glyph-name="zero" unicode="0" horiz-adv-x="699" 
d="M344 718q160 0 249.5 -101.5t89.5 -258.5q0 -165 -91 -269t-239 -104q-159 0 -248.5 102t-89.5 254q0 94 42.5 180t119 141.5t167.5 55.5zM59 367q0 -55 11 -106t35 -98.5t59.5 -82t88.5 -55.5t117 -21q133 0 198 94.5t65 247.5q0 54 -8.5 102t-30.5 95.5t-56 81
t-89 54.5t-126 21q-121 0 -192.5 -100.5t-71.5 -232.5z" />
    <glyph glyph-name="one" unicode="1" horiz-adv-x="188" 
d="M1 590q11 10 30.5 25.5t30.5 24.5t25.5 25t25.5 35h8v-15v-670l47 -5v-10h-140v10l47 5v614q-21 -18 -71 -46z" />
    <glyph glyph-name="two" unicode="2" horiz-adv-x="436" 
d="M27 0q0 129 147 233q11 7 40.5 27.5t39.5 27.5t32.5 26t31 30.5t23 33t19.5 42t10 48.5t5 61q0 72 -44.5 115.5t-103.5 43.5q-40 0 -71 -11t-50 -26.5t-35 -44t-24.5 -51.5t-19.5 -60l-6 1l2 83h6l5 -39q10 72 64 124t136 52q74 0 130 -56.5t56 -131.5q0 -31 -7 -61
t-15.5 -51.5t-27 -45.5t-29.5 -37t-36.5 -33.5t-33.5 -26.5t-35.5 -24t-28.5 -19q-146 -99 -146 -196l302 1l15 56h9v-91h-360z" />
    <glyph glyph-name="three" unicode="3" horiz-adv-x="551" 
d="M494 664l-308 -195q57 34 135 34q91 0 153 -76t61 -182q-1 -126 -80.5 -197t-184.5 -71q-93 0 -154 52.5t-87 120.5l1 -44l-6 -1l-9 87l6 1q12 -28 30 -56.5t47 -61.5t71.5 -54t89.5 -21q44 0 82 11.5t72.5 37.5t55 76t20.5 120q0 57 -16 109.5t-56 92t-98 39.5
q-47 0 -84 -10.5t-57.5 -22t-65.5 -41.5l-10 10l368 242h-368l-15 -89h-10v125h417v-36z" />
    <glyph glyph-name="four" unicode="4" horiz-adv-x="573" 
d="M415 86l-400 1v8l37 7l373 598h36v-597h64l19 74h9v-91h-92v-71l47 -5v-10h-140v10l47 5v71zM84 103h331v526q-8 -9 -160 -260.5t-171 -265.5z" />
    <glyph glyph-name="five" unicode="5" horiz-adv-x="561" 
d="M34 150l1 -44l-6 -1l-9 87l6 1q12 -28 30 -56.5t47 -61.5t71.5 -54t89.5 -21q44 0 82 11.5t72.5 37.5t55 76t20.5 120q0 96 -60 166t-161 70q-71 0 -116 -28.5t-96 -86.5l45 334h356v-125h-10l-19 89h-313l-32 -231q77 70 185 70q114 0 191 -71.5t76 -186.5
q-1 -126 -80.5 -197t-184.5 -71q-93 0 -154 52.5t-87 120.5z" />
    <glyph glyph-name="six" unicode="6" horiz-adv-x="674" 
d="M617 589l-9 -5q-31 54 -106.5 84.5t-143.5 30.5q-121 0 -208 -91t-87 -231v-17q21 63 74.5 107.5t112.5 63t119 17.5q129 -1 209.5 -87.5t80.5 -203.5q0 -133 -88.5 -200t-232.5 -67q-74 0 -146 40.5t-119 112.5q-49 78 -56 172q-13 173 90.5 285t260.5 113
q63 0 119.5 -22.5t88.5 -51.5l-14 46l7 3zM151 117q87 -103 227 -103q119 0 184.5 55.5t66.5 157.5q1 117 -78 202.5t-206 85.5q-103 0 -178 -49.5t-89.5 -138t73.5 -210.5z" />
    <glyph glyph-name="seven" unicode="7" horiz-adv-x="538" 
d="M523 700l-276 -684l40 -5v-11h-113v11l44 5l261 648h-432l-19 -65h-8v101h503z" />
    <glyph glyph-name="eight" unicode="8" horiz-adv-x="439" 
d="M160 362q-119 61 -119 177q0 86 56.5 130.5t139.5 44.5q63 0 109 -47t46 -112q0 -132 -129 -190q31 -14 55 -28.5t50 -36.5t40.5 -53t14.5 -68q1 -93 -59 -145.5t-152 -52.5q-83 0 -140 53t-57 150q0 68 41 111.5t104 66.5zM241 375q55 16 82 55.5t27 111.5q0 55 -38 104
t-100 49q-76 0 -103 -37t-27 -119q0 -96 127 -151q5 -2 16 -6.5t16 -6.5zM182 352q-73 -14 -98 -52.5t-25 -120.5q0 -91 51.5 -136t118.5 -45q74 0 114.5 34.5t40.5 125.5q0 113 -182 186q-6 2 -20 8z" />
    <glyph glyph-name="nine" unicode="9" horiz-adv-x="674" 
d="M105 15l-48 99l9 5q31 -54 106.5 -84.5t143.5 -30.5q121 0 208 91t87 231v12q-27 -82 -104 -132.5t-202 -50.5q-129 0 -209.5 87t-80.5 204q0 128 92.5 199t228.5 71q72 0 141.5 -37.5t120.5 -114.5t59 -176q13 -173 -90.5 -285t-260.5 -113q-63 0 -119.5 22.5
t-88.5 51.5l14 -46zM43 474q-1 -117 83 -205.5t212 -88.5q127 0 206.5 87t43.5 209q-32 98 -105.5 158t-178.5 60q-113 0 -186.5 -61.5t-74.5 -158.5z" />
    <glyph glyph-name="colon" unicode=":" horiz-adv-x="76" 
d="M14 296q0 12 7.5 19t17.5 7t16.5 -7t6.5 -19q0 -10 -6.5 -17.5t-16.5 -7.5q-11 0 -18 7.5t-7 17.5zM14 17q0 12 7.5 19t17.5 7t16.5 -7t6.5 -19q0 -10 -6.5 -17.5t-16.5 -7.5q-11 0 -18 7.5t-7 17.5z" />
    <glyph glyph-name="semicolon" unicode=";" horiz-adv-x="80" 
d="M13 296q0 12 8 19t18 7t16.5 -7t6.5 -19q0 -10 -6.5 -17.5t-16.5 -7.5q-11 0 -18.5 7.5t-7.5 17.5zM41 -8q-11 0 -18.5 7.5t-7.5 17.5q0 12 8 19t18 7t17 -7t7 -19q0 -38 -46 -64l-2 2q24 21 24 37z" />
    <glyph glyph-name="equal" unicode="=" horiz-adv-x="365" 
d="M20 271v17h325v-17h-325zM20 381v17h325v-17h-325z" />
    <glyph glyph-name="question" unicode="?" horiz-adv-x="442" 
d="M16 600l4 2l12 -32q-3 63 58.5 113t136.5 50q85 0 142.5 -49t56.5 -140q0 -56 -18 -99.5t-55 -73.5t-56.5 -41.5t-60.5 -30.5q-2 -2 -4 -2.5t-4 -1.5l-4 -2q-53 -25 -78 -50t-25 -61q0 -87 72 -87q45 0 66 38t6 90l5 2l26 -58l-6 -2l-13 24q1 -110 -95 -110q-34 0 -60 27
t-26 75q0 41 25 66.5t80 52.5q87 41 115 63q79 62 75 182q-5 162 -170 162q-83 0 -139.5 -59t-39.5 -128l-5 -1zM171 18q0 13 7.5 21t18.5 8q10 0 17.5 -7.5t7.5 -21.5q0 -10 -7.5 -17.5t-17.5 -7.5q-12 0 -19 7.5t-7 17.5z" />
    <glyph glyph-name="A" unicode="A" 
d="M360 721l84 -706l47 -5v-10h-140v10l46 5l-38 341h-127l-136 -341l59 -5v-10h-140v10l63 4zM332 606l-93 -232h119z" />
    <glyph glyph-name="B" unicode="B" horiz-adv-x="422" 
d="M166 367q122 -1 181.5 -51.5t59.5 -139.5q0 -54 -23 -91t-64 -54.5t-83 -23.5t-95 -6h-29h-93v11l47 5v666l-47 5v11h93h30q42 0 75 -3t68.5 -13t59 -28t39 -49.5t15.5 -74.5q0 -81 -61.5 -122t-172.5 -42zM113 16h20q125 0 176.5 34.5t51.5 121.5q0 96 -55.5 140
t-176.5 44h-16v-340zM113 378h17q37 0 65.5 3t60 13t51.5 26.5t33.5 46t13.5 69.5q0 47 -16.5 78t-49.5 46t-68.5 20t-86.5 5h-20v-307z" />
    <glyph glyph-name="C" unicode="C" horiz-adv-x="526" 
d="M481 80l6 50q-19 -30 -33.5 -48.5t-41 -45t-60.5 -39.5t-75 -13q-115 0 -188.5 98.5t-73.5 276.5q0 92 31.5 172.5t96 133t150.5 52.5q89 0 157 -93l-15 44l7 4l44 -96l-9 -4q-30 55 -81.5 92.5t-110.5 37.5q-101 -1 -158 -99t-59 -246q-2 -170 53 -258t161 -89
q69 0 136 54.5t83 122.5l9 -2l-21 -108z" />
    <glyph glyph-name="D" unicode="D" horiz-adv-x="317" 
d="M120 700q72 0 125 -94.5t56 -237.5q3 -161 -54.5 -264.5t-124.5 -103.5h-9h-93v10l47 5v670l-47 5v10h93h7zM113 15h7q37 1 65 38.5t42.5 95t21 113t6.5 106.5q0 132 -40 224.5t-94 92.5h-8v-670z" />
    <glyph glyph-name="E" unicode="E" horiz-adv-x="393" 
d="M20 700h353v-126h-11l-19 109h-230v-253h128l5 74h13l2 -184h-13l-7 93h-128v-398h233l16 100h11v-115h-353v10l47 5v668l-47 7v10z" />
    <glyph glyph-name="F" unicode="F" horiz-adv-x="284" 
d="M160 0h-140v10l47 5v668l-47 7v10h244v-126h-10l-18 109h-123v-253h63l7 74h11l2 -184h-11l-9 93h-63v-398l47 -5v-10z" />
    <glyph glyph-name="G" unicode="G" horiz-adv-x="560" 
d="M501 281v-100q2 -121 -8 -211h-9q-14 75 -20 125q-26 -34 -46 -53.5t-61 -37t-93 -17.5q-92 0 -163 88.5t-83 238.5q-14 180 56.5 289t206.5 110q18 0 33 -2t29.5 -7.5t22.5 -8.5t21.5 -13.5t17 -12.5t17.5 -15.5t15 -14.5l-14 46l7 3l48 -99l-9 -5q-66 114 -198 116
q-98 0 -150.5 -87t-52.5 -234q0 -102 19.5 -181t70.5 -132.5t130 -53.5q33 0 65 16.5t51 35t55 57.5v160l-49 5v10h140v-10z" />
    <glyph glyph-name="H" unicode="H" horiz-adv-x="614" 
d="M454 700h140v-10l-47 -5v-670l47 -5v-10h-140v10l47 5v356h-388v-356l47 -5v-10h-140v10l47 5v670l-47 5v10h140v-10l-47 -5v-297h388v297l-47 5v10z" />
    <glyph glyph-name="I" unicode="I" horiz-adv-x="180" 
d="M20 700h140v-10l-47 -5v-670l47 -5v-10h-140v10l47 5v670l-47 5v10z" />
    <glyph glyph-name="J" unicode="J" horiz-adv-x="182" 
d="M-1 -58l-5 7q22 19 41 47.5t23 45.5q11 43 11 92v551l-47 5v10h140v-10l-47 -5v-541q0 -11 -0.5 -21t-1 -18t-1 -14t-2.5 -12.5t-2.5 -10t-3 -9t-3 -7t-3 -7.5t-3.5 -7q-24 -54 -96 -96z" />
    <glyph glyph-name="K" unicode="K" horiz-adv-x="524" 
d="M112 389v-375l47 -5v-10h-139v10l47 5v671l-47 5v10h139v-10l-47 -5v-287h20l296 287l-59 5v10h139v-10l-61 -5l-296 -289q28 -3 51.5 -8.5t41.5 -11t33.5 -18t26 -20.5t20.5 -27.5t15.5 -29.5t13.5 -36.5t11 -38t10.5 -45t11.5 -47.5q14 -61 25.5 -84.5t32.5 -23.5
q12 0 24 15t18 31l7 15q5 -9 5 -30q0 -22 -16 -33.5t-38 -11.5q-57 0 -97 122q-5 15 -13.5 46t-14 49t-16.5 46t-21.5 45t-27.5 36.5t-36 30t-46.5 17t-59.5 5.5z" />
    <glyph glyph-name="L" unicode="L" horiz-adv-x="270" 
d="M255 0h-235v10l47 7v668l-47 5v10h140v-10l-47 -5v-668h113l19 109h10v-126z" />
    <glyph glyph-name="M" unicode="M" horiz-adv-x="876" 
d="M439 444l146 277l232 -706l44 -4v-11h-38h-48h-51v11l46 4l-210 619l-133 -251l-142 257l-193 -624l60 -5v-11h-65h-16h-56v11l61 5l215 704z" />
    <glyph glyph-name="N" unicode="N" horiz-adv-x="483" 
d="M69 720l329 -618v583l-54 5v10h124v-10l-53 -5v-705l-330 619v-583l54 -5v-11h-124v11l54 5v704z" />
    <glyph glyph-name="O" unicode="O" horiz-adv-x="533" 
d="M260 -16q-106 0 -175 107.5t-69 248.5q0 93 28.5 177t89 141t139.5 57q71 0 128 -52t86.5 -132.5t29.5 -171.5q0 -93 -28.5 -177t-89 -141t-139.5 -57zM272 17q98 0 152 85t54 211q0 61 -12.5 123t-37 118.5t-68 92t-99.5 35.5q-98 0 -152 -85t-54 -211q0 -61 12.5 -123
t37 -118.5t68 -92t99.5 -35.5z" />
    <glyph glyph-name="P" unicode="P" horiz-adv-x="423" 
d="M20 690v10h113q84 0 140.5 -13t85 -37.5t39 -52.5t10.5 -66q0 -59 -22 -96t-84.5 -60t-168.5 -23h-20v-337l47 -5v-10h-140v10l47 5v670zM113 367h20q119 0 174 32.5t55 130.5q0 83 -53.5 119.5t-175.5 36.5h-20v-319z" />
    <glyph glyph-name="Q" unicode="Q" horiz-adv-x="531" 
d="M259 -16q-106 0 -175 107.5t-69 248.5q0 93 28.5 177t89 141t139.5 57q71 0 128 -52t86.5 -132.5t29.5 -171.5q0 -86 -25.5 -166.5t-73.5 -133.5q3 -18 4 -58.5t6.5 -60.5t22.5 -20q7 0 11.5 1.5t12.5 10t17 24.5q-6 -32 -15.5 -43t-30.5 -11q-17 0 -27.5 8t-14.5 24.5
t-5.5 30t-2 38t-1.5 33.5q-60 -52 -135 -52zM271 17q34 0 64 11q-27 32 -15 59t46 27q31 0 44 -30q67 82 67 229q0 61 -12.5 123t-37 118.5t-68 92t-99.5 35.5q-98 0 -152 -85t-54 -211q0 -61 12.5 -123t37 -118.5t68 -92t99.5 -35.5zM337 29q26 10 53 34q-7 24 -28 24
q-14 0 -24.5 -14t-0.5 -44z" />
    <glyph glyph-name="R" unicode="R" horiz-adv-x="511" 
d="M112 684v-316h20q124 0 176.5 34t52.5 127q0 48 -18 80t-52 47.5t-71 21.5t-88 6h-20zM20 688v11h112q84 0 141 -14.5t84.5 -40.5t38 -53t10.5 -61q0 -22 -4 -41t-17.5 -42t-36 -40t-63.5 -31t-97 -19q25 -3 46 -11t35.5 -16t27 -22.5t20 -25t15 -30.5t11 -31t10 -34.5
t9.5 -33.5q27 -92 41 -120t36 -28q31 0 44 60q8 -13 8 -25q0 -46 -53 -46q-30 0 -51.5 23.5t-43.5 93.5q-5 15 -12.5 44.5t-13.5 48t-16 44.5t-23.5 42t-32.5 32t-46 23.5t-61 7.5h-26v-337l48 -5v-10h-48h-92v10l47 5v667z" />
    <glyph glyph-name="S" unicode="S" horiz-adv-x="432" 
d="M400 595l7 -81h-5q-10 29 -13 35q-38 78 -81 110.5t-104 32.5q-62 0 -106 -37t-44 -108q0 -57 38 -94.5t92 -59t108 -45.5t92 -71.5t38 -119.5q0 -78 -54 -123t-122 -45q-74 0 -122 44t-95 130l6 -35l-6 -1l-14 70l5 1q3 -9 11 -25q58 -83 91 -112q53 -47 111 -47
q65 0 104.5 39t39.5 109q0 43 -20 75t-52 52.5t-70.5 37.5t-77 35t-70.5 40.5t-52 59t-20 84.5q0 78 53 126t129 48q141 0 199 -165l-2 39z" />
    <glyph glyph-name="T" unicode="T" horiz-adv-x="515" 
d="M15 700h485v-126h-10l-19 109h-193v-668l47 -5v-10h-140v10l47 5v668h-188l-19 -109h-10v126z" />
    <glyph glyph-name="U" unicode="U" horiz-adv-x="788" 
d="M634 701h143v-11l-61 -5v-107q-2 -303 -73 -447.5t-223 -144.5q-189 0 -272 142.5t-93 452.5l-1 103l-44 6v11h143v-11l-43 -3v-107q7 -305 77 -432.5t238 -127.5q131 0 200 129t71 428v109l-62 4v11z" />
    <glyph glyph-name="V" unicode="V" 
d="M351 700h139v-9l-62 -4l-155 -702l-211 702l-47 4v9h140v-9l-46 -4l173 -589l128 589l-59 4v9z" />
    <glyph glyph-name="W" unicode="W" horiz-adv-x="721" 
d="M237 -11l-175 696l-47 5v10h41h49h48v-10l-44 -4l143 -561l106 477l140 -493l130 576l-61 5v10h64h18h56v-10l-60 -5l-158 -695l-140 487z" />
    <glyph glyph-name="X" unicode="X" horiz-adv-x="629" 
d="M465 700h139v-10l-58 -5l-215 -315l237 -355l46 -5v-10h-140v10l47 5l-215 308l-212 -308l61 -5v-10h-140v10l61 5l221 327l-232 344l-46 4v10h140v-10l-45 -4l207 -297l206 296l-62 5v10z" />
    <glyph glyph-name="Y" unicode="Y" horiz-adv-x="660" 
d="M15 700h140v-10l-49 -5l238 -276l222 274l-61 5v10h140v-10l-58 -5l-236 -293v-375l47 -5v-10h-140v10l47 5v375l-243 295l-47 5v10z" />
    <glyph glyph-name="Z" unicode="Z" horiz-adv-x="331" 
d="M15 0l246 683h-198l-18 -74h-9v91h280l-246 -683h212l19 74h9v-91h-295z" />
    <glyph glyph-name="bracketleft" unicode="[" horiz-adv-x="248" 
d="M233 740v-10l-194 -8l3 -792l191 -8v-10h-210l-3 828h213z" />
    <glyph glyph-name="bracketright" unicode="]" horiz-adv-x="248" 
d="M15 740h213l-3 -828h-210v10l191 8l3 792l-194 8v10z" />
    <glyph glyph-name="underscore" unicode="_" horiz-adv-x="365" 
d="M20 -39v17h325v-17h-325z" />
    <glyph glyph-name="a" unicode="a" horiz-adv-x="782" 
d="M402 721l322 -706l43 -6v-9h-140v9l42 3l-151 339h-268l-156 -336l61 -5v-10h-140v9l60 6zM387 645l-128 -275h251z" />
    <glyph glyph-name="b" unicode="b" horiz-adv-x="271" 
d="M113 685v-318q48 1 74.5 45.5t26.5 114.5q0 69 -26.5 113.5t-67.5 44.5h-7zM154 360q45 -18 76 -61t31 -112q0 -25 -3 -48t-12 -49.5t-23.5 -45t-41 -31.5t-61.5 -13h-7h-93v10l47 5v670l-47 5v10h100q74 0 106.5 -48t32.5 -125q0 -60 -25.5 -105t-79.5 -62zM113 15h7
q43 1 68.5 47.5t25.5 119.5t-26.5 120t-74.5 48v-335z" />
    <glyph glyph-name="c" unicode="c" horiz-adv-x="660" 
d="M612 69l6 53q-29 -47 -106.5 -89.5t-173.5 -42.5q-53 0 -107 22t-100 62t-77 103t-37 138q-13 173 90.5 285t260.5 113q63 0 119.5 -22.5t88.5 -51.5l-14 46l7 3l48 -99l-9 -5q-31 54 -106.5 84.5t-143.5 30.5q-121 0 -208 -91t-87 -231q0 -97 36 -178.5t109 -133
t170 -51.5q74 0 153 49.5t104 118.5l10 -3l-24 -112z" />
    <glyph glyph-name="d" unicode="d" horiz-adv-x="591" 
d="M169 700q184 0 296.5 -85t114.5 -236q3 -200 -101 -290t-306 -89h-60h-93v10l47 5v670l-47 5v10h93h56zM113 15h60q193 5 275 85t82 279q0 143 -94 224.5t-266 81.5h-57v-670z" />
    <glyph glyph-name="e" unicode="e" horiz-adv-x="278" 
d="M20 700h243v-126h-9l-17 109h-124v-253h63l7 74h11l2 -185h-11l-9 94h-63v-398h119l13 100h11v-115h-236v10l47 5v668l-47 7v10z" />
    <glyph glyph-name="f" unicode="f" horiz-adv-x="383" 
d="M160 0h-140v10l47 5v668l-47 7v10h353v-126h-11l-18 109h-231v-253h128l7 74h11l2 -185h-11l-9 93h-128v-397l47 -5v-10z" />
    <glyph glyph-name="g" unicode="g" horiz-adv-x="735" 
d="M640 281v-100q0 -116 80 -191l-6 -7q-6 5 -18.5 14t-17 12.5t-13.5 11t-14 13.5t-13 16t-15 22t-15 27q-37 -48 -106.5 -81.5t-163.5 -33.5q-72 0 -141.5 38t-120.5 115.5t-59 176.5q-13 174 90.5 286t260.5 113q63 0 119.5 -22.5t88.5 -51.5l-14 46l7 3l48 -99l-9 -5
q-31 54 -106 84.5t-144 31.5q-120 0 -205 -93t-85 -233q0 -152 82.5 -255t227.5 -103q53 0 115.5 29.5t104.5 75.5v160l-49 5v10h140v-10z" />
    <glyph glyph-name="h" unicode="h" horiz-adv-x="386" 
d="M227 700h139v-10l-47 -5v-670l47 -5v-10h-139v10l47 5v356h-161v-356l47 -5v-10h-140v10l47 5v670l-47 5v10h140v-10l-47 -5v-297h161v297l-47 5v10z" />
    <glyph glyph-name="i" unicode="i" horiz-adv-x="180" 
d="M20 700h140v-10l-47 -5v-670l47 -5v-10h-140v10l47 5v670l-47 5v10z" />
    <glyph glyph-name="j" unicode="j" horiz-adv-x="191" 
d="M8 -58l-5 7q22 19 41 47.5t23 45.5q11 43 11 92v551l-47 5v10h140v-10l-47 -5v-541q0 -11 -0.5 -21t-1 -18t-1 -14t-2.5 -12.5t-2.5 -10t-3 -9t-3 -7t-3 -7.5t-3.5 -7q-24 -54 -96 -96z" />
    <glyph glyph-name="k" unicode="k" horiz-adv-x="429" 
d="M416 39q7 -22 -1 -32q-14 -16 -33 -16q-11 0 -28.5 9t-43 38t-40.5 72q-14 40 -25.5 106.5t-21.5 97.5q-12 35 -43.5 51t-61.5 16h-5v-366l46 -5v-10h-139v10l47 5l-1 670l-46 5v10h139v-10l-46 -5v-293h15l186 293l-60 5v10h140v-10l-61 -5l-186 -294q86 -12 117 -69
q15 -28 25 -101t27 -126q12 -37 26 -59t23.5 -27t18.5 -3q7 2 15 10t13 16z" />
    <glyph glyph-name="l" unicode="l" horiz-adv-x="427" 
d="M412 0h-392v10l47 7v668l-47 5v10h140v-10l-47 -5v-668h270l19 109h10v-126z" />
    <glyph glyph-name="m" unicode="m" horiz-adv-x="764" 
d="M498 721l205 -708l45 -4v-9h-138v9l45 4l-180 620l-110 -227l-120 231l-153 -624l61 -4v-9h-138v9l60 4l174 707l128 -252z" />
    <glyph glyph-name="n" unicode="n" horiz-adv-x="587" 
d="M74 720l423 -621v587l-54 4v10h124v-10l-53 -4v-706l-424 622v-587l54 -5v-10h-124v10l54 5v705z" />
    <glyph glyph-name="o" unicode="o" horiz-adv-x="721" 
d="M344 718q154 0 257.5 -111.5t103.5 -270.5q0 -147 -91.5 -247t-238.5 -100q-155 0 -257.5 109.5t-102.5 264.5q0 148 92 251.5t237 103.5zM410 20q110 0 184.5 73t74.5 180q0 181 -93.5 296t-259.5 115q-113 0 -193 -79.5t-80 -192.5q0 -165 105.5 -278.5t261.5 -113.5z
" />
    <glyph glyph-name="p" unicode="p" horiz-adv-x="272" 
d="M262 532q0 -74 -34.5 -126t-105.5 -52h-9v-339l47 -5v-10h-140v10l47 5v670l-47 5v10h103q62 0 100.5 -49.5t38.5 -118.5zM113 369h9q27 0 46 11t28.5 25t14 39.5t5 42t0.5 45.5q-2 154 -94 154h-9v-317z" />
    <glyph glyph-name="q" unicode="q" horiz-adv-x="725" 
d="M344 718q154 0 257.5 -111.5t103.5 -270.5q0 -84 -32 -155.5t-90 -119.5q14 -16 45.5 -61t54.5 -66.5t48 -21.5q28 0 45.5 8.5t38.5 28.5q-14 -31 -35.5 -46.5t-60.5 -15.5q-26 0 -53.5 18.5t-43 36t-41.5 52t-32 42.5q-77 -47 -174 -47q-155 0 -257.5 109.5
t-102.5 264.5q0 148 92 251.5t237 103.5zM410 21q68 0 126 30q-10 11 -18 13q-56 21 -108 -42q2 38 26 65t57 27q40 0 78 -40q97 73 97 199q0 109 -42 201.5t-124 150.5t-186 58q-114 0 -192 -77.5t-78 -191.5q0 -160 105 -276.5t259 -116.5z" />
    <glyph glyph-name="r" unicode="r" horiz-adv-x="374" 
d="M262 531q0 -75 -36.5 -124.5t-92.5 -53.5q44 -4 70 -22t36.5 -48t14.5 -59.5t8.5 -70.5t13.5 -68q25 -85 59 -85q8 0 14.5 8t9.5 16l3 9q1 -2 2 -6t2 -13t-1 -12q-7 -15 -32 -15q-9 0 -23 7.5t-34.5 34t-33.5 66.5q-7 22 -12.5 60t-10.5 67t-15.5 58t-33 45t-57.5 16
v-326l47 -5v-10h-140v10l47 5v670l-47 5v10h103q139 0 139 -169zM113 686v-319h10q88 0 93 161q6 158 -93 158h-10z" />
    <glyph glyph-name="s" unicode="s" horiz-adv-x="566" 
d="M520 633l28 -72l-5 -3q-15 25 -22 31q-128 103 -260 103q-41 0 -84.5 -15t-78.5 -52.5t-35 -89.5q0 -43 17 -72t50.5 -45t66 -24t82 -18.5t80.5 -20.5q89 -30 132 -72.5t43 -127.5q0 -54 -36 -93.5t-81.5 -56t-87.5 -16.5q-77 0 -155.5 47t-127.5 117l4 -35l-5 -1l-15 70
l5 1q6 -15 12 -25q34 -56 117 -102.5t152 -46.5q66 0 117 38.5t51 107.5q0 147 -170 189q-18 5 -55 13.5t-59 14t-54 16t-51 22.5t-38 28.5t-28 39.5t-9 51q0 55 38.5 99t91.5 65.5t104 21.5q69 0 140.5 -35t129.5 -89l-9 35z" />
    <glyph glyph-name="t" unicode="t" horiz-adv-x="360" 
d="M15 700h330v-126h-10l-19 109h-113v-668l47 -5v-10h-140v10l47 5v668h-113l-19 -109h-10v126z" />
    <glyph glyph-name="u" unicode="u" 
d="M351 700h139v-10l-62 -4v-103q1 -349 -23.5 -472.5t-135.5 -123.5q-115 0 -160 105q-41 95 -46 351q-1 67 -1 243l-47 4v10h140v-10l-46 -4q0 -333 6 -415q13 -180 72 -231q31 -28 82 -28q98 0 120 115t21 468v31v28v32l-59 4v10z" />
    <glyph glyph-name="v" unicode="v" horiz-adv-x="798" 
d="M639 700h143v-10l-61 -4l-334 -699l-328 700l-44 3v10h143v-10l-43 -3l288 -625l298 624l-62 4v10z" />
    <glyph glyph-name="w" unicode="w" horiz-adv-x="876" 
d="M429 488l-138 -496l-232 693l-44 5v10h137v-10l-46 -5l199 -581l136 494l156 -490l187 577l-60 5v10h137v-10l-61 -5l-217 -692z" />
    <glyph glyph-name="x" unicode="x" horiz-adv-x="479" 
d="M325 700h139v-10l-61 -5l-142 -316l158 -354l45 -5v-10h-140v10l41 5l-133 313l-139 -313l62 -5v-10h-140v10l59 5l148 328l-150 342l-44 5v10h140v-10l-41 -5l124 -300l135 300l-61 5v10z" />
    <glyph glyph-name="y" unicode="y" horiz-adv-x="497" 
d="M339 700h143v-10l-61 -5l-130 -328v-342l48 -5v-10h-142v10l48 5v331l-182 339l-48 5v10h143v-10l-48 -5h-1l168 -315l125 315l-63 5v10z" />
    <glyph glyph-name="z" unicode="z" horiz-adv-x="514" 
d="M15 1l420 682h-372l-19 -104h-8v121h463l-420 -683h386l19 94h9v-111z" />
    <glyph glyph-name="braceleft" unicode="{" horiz-adv-x="275" 
d="M265 777v-10q-123 0 -132 -68q-33 -236 -33 -286q0 -13 -2 -20.5t-10.5 -13.5t-14 -8.5t-23.5 -9.5q21 -5 30 -9t14.5 -14.5t5.5 -31.5q0 -48 33 -320q4 -33 41.5 -57.5t90.5 -23.5v-10q-147 0 -159 91q-37 282 -37 343q0 22 -54 29v6q5 1 17 4l16 4t10.5 4t8.5 7t2 10
q0 21 4 60t8.5 71.5t13 91t11.5 83.5q4 27 19 44t41 24t47.5 8.5t51.5 1.5z" />
    <glyph glyph-name="braceright" unicode="}" horiz-adv-x="275" 
d="M10 777q30 0 51.5 -1.5t47.5 -8.5t41 -24t19 -44q3 -25 11.5 -83.5t13 -91t8.5 -71.5t4 -60q0 -6 2 -10t8.5 -7t10.5 -4l16 -4t17 -4v-6q-54 -7 -54 -29q0 -61 -37 -343q-12 -91 -159 -91v10q53 -1 90.5 23.5t41.5 57.5q33 272 33 320q0 29 10 38.5t40 16.5
q-18 7 -23.5 9.5t-14 8.5t-10.5 13.5t-2 20.5q0 50 -33 286q-9 68 -132 68v10z" />
    <glyph glyph-name="uni0085" unicode="&#x85;" horiz-adv-x="278" 
d="M16 17q0 12 7.5 19t17.5 7t16.5 -7t6.5 -19q0 -10 -6.5 -17.5t-16.5 -7.5q-11 0 -18 7.5t-7 17.5zM115 17q0 12 7.5 19t17.5 7t16.5 -7t6.5 -19q0 -10 -6.5 -17.5t-16.5 -7.5q-11 0 -18 7.5t-7 17.5zM214 17q0 12 7.5 19t17.5 7t16.5 -7t6.5 -19q0 -10 -6.5 -17.5
t-16.5 -7.5q-11 0 -18 7.5t-7 17.5z" />
    <glyph glyph-name="guillemotleft" unicode="&#xab;" horiz-adv-x="323" 
d="M299 515l4 -4l-150 -204l147 -221l-4 -4l-195 225zM141 425l5 -4l-82 -114l78 -121l-5 -4l-117 125z" />
    <glyph glyph-name="guillemotright" unicode="&#xbb;" horiz-adv-x="331" 
d="M24 515l198 -208l-195 -225l-4 4l147 221l-150 204zM182 425l121 -118l-117 -125l-5 4l78 121l-82 114z" />
    <glyph glyph-name="uni0401" unicode="&#x401;" horiz-adv-x="280" 
d="M20 700h245v-125h-10l-16 110h-126v-253h64l8 73h10l1 -185h-10l-9 94l-64 -1v-398h118l14 100h11v-115h-236v10l47 5v670l-47 5v10zM128 766q0 -10 -6.5 -17t-16.5 -7t-17.5 7t-7.5 17t7 17.5t18 7.5q10 0 16.5 -7t6.5 -18zM220 766q0 -10 -7.5 -17t-17.5 -7t-17 7
t-7 17t7 17.5t17 7.5q11 0 18 -7.5t7 -17.5z" />
    <glyph glyph-name="uni0405" unicode="&#x405;" horiz-adv-x="432" 
d="M400 595l7 -81h-5q-10 29 -13 35q-38 78 -81 110.5t-104 32.5q-62 0 -106 -37t-44 -108q0 -57 38 -94.5t92 -59t108 -45.5t92 -71.5t38 -119.5q0 -78 -54 -123t-122 -45q-74 0 -122 44t-95 130l6 -35l-6 -1l-14 70l5 1q3 -9 11 -25q58 -83 91 -112q53 -47 111 -47
q65 0 104.5 39t39.5 109q0 43 -20 75t-52 52.5t-70.5 37.5t-77 35t-70.5 40.5t-52 59t-20 84.5q0 78 53 126t129 48q141 0 199 -165l-2 39z" />
    <glyph glyph-name="uni0406" unicode="&#x406;" horiz-adv-x="180" 
d="M20 700h140v-10l-47 -5v-670l47 -5v-10h-140v10l47 5v670l-47 5v10z" />
    <glyph glyph-name="uni0407" unicode="&#x407;" horiz-adv-x="182" 
d="M20 700h140v-10l-47 -5v-670l47 -5v-10h-140v10l47 5v670l-47 5v10zM70 766q0 -10 -6.5 -17t-16.5 -7t-17.5 7t-7.5 17t7 17.5t18 7.5q10 0 16.5 -7t6.5 -18zM162 766q0 -10 -7.5 -17t-17.5 -7t-17 7t-7 17t7 17.5t17 7.5q11 0 18 -7.5t7 -17.5z" />
    <glyph glyph-name="uni0408" unicode="&#x408;" horiz-adv-x="181" 
d="M-2 -58l-5 7q22 19 41 47.5t23 45.5q11 43 11 92v551l-47 5v10h140v-10l-47 -5v-541q0 -11 -0.5 -21t-1 -18t-1 -14t-2.5 -12.5t-2.5 -10t-3 -9t-3 -7t-3 -7.5t-3.5 -7q-24 -54 -96 -96z" />
    <glyph glyph-name="uni0410" unicode="&#x410;" 
d="M360 721l84 -706l47 -5v-10h-140v10l46 5l-38 341h-127l-136 -341l59 -5v-10h-140v10l63 4zM332 606l-93 -232h119z" />
    <glyph glyph-name="uni0411" unicode="&#x411;" horiz-adv-x="418" 
d="M408 186q0 -103 -58.5 -144.5t-217.5 -41.5h-112v10l47 5v668l-47 7v10h364v-126h-10l-19 109h-242v-316h20q137 0 206 -43t69 -138zM112 15h20q123 0 176.5 38t53.5 135q0 164 -229 164h-20z" />
    <glyph glyph-name="uni0412" unicode="&#x412;" horiz-adv-x="417" 
d="M166 367q122 -1 181.5 -51.5t59.5 -139.5q0 -54 -23 -91t-64 -54.5t-83 -23.5t-95 -6h-29h-93v11l47 5v666l-47 5v11h93h30q42 0 75 -3t68.5 -13t59 -28t39 -49.5t15.5 -74.5q0 -81 -61.5 -122t-172.5 -42zM113 16h20q125 0 176.5 34.5t51.5 121.5q0 96 -55.5 140
t-176.5 44h-16v-340zM113 378h17q37 0 65.5 3t60 13t51.5 26.5t33.5 46t13.5 69.5q0 47 -16.5 78t-49.5 46t-68.5 20t-86.5 5h-20v-307z" />
    <glyph glyph-name="uni0413" unicode="&#x413;" horiz-adv-x="270" 
d="M20 700h235v-126h-10l-19 109h-113v-668l47 -5v-10h-140v10l47 5v668l-47 7v10z" />
    <glyph glyph-name="uni0414" unicode="&#x414;" horiz-adv-x="498" 
d="M353 723l83 -706h47v-140h-10l-28 123h-392l-28 -123h-10v140h56zM324 608l-235 -591h300z" />
    <glyph glyph-name="uni0415" unicode="&#x415;" horiz-adv-x="388" 
d="M20 700h353v-126h-11l-19 109h-230v-253h128l5 74h13l2 -184h-13l-7 93h-128v-398h233l16 100h11v-115h-353v10l47 5v668l-47 7v10z" />
    <glyph glyph-name="uni0416" unicode="&#x416;" horiz-adv-x="876" 
d="M861 700v-10l-61 -5l-299 -287q44 -4 76 -12.5t53.5 -23.5t34.5 -30.5t23 -42t15.5 -48.5l15 -60t19.5 -68q24 -81 33 -93q9 -14 25 -16q12 -1 24.5 13.5t19.5 30.5l7 15q9 -34 -3 -53q-17 -24 -47 -19q-62 8 -100 130q-5 15 -14 46.5l-14 49t-16 45t-21 43.5t-27.5 35.5
t-36.5 29t-46.5 16t-60.5 5.5v-375l47 -6v-10h-141v10l48 6v375q-37 2 -67 -5.5t-51.5 -24.5t-36.5 -34.5t-27.5 -47.5t-19 -50t-16.5 -55.5t-15 -52.5q-38 -121 -102 -130q-32 -5 -48 19q-6 8 -6.5 21.5t2.5 22.5l2 9q3 -7 7.5 -17t17.5 -26.5t25 -15.5q6 1 11 3t9.5 7.5
t7.5 10.5t7 16t6.5 18.5t8 25t9.5 28.5q10 33 21 78t17 68t20 51.5t34 43t56 27t88 17.5l-299 287l-61 5v10h140v-10l-59 -5l298 -285h21v285l-48 5v10h141v-10l-47 -5v-285h21l298 285l-60 5v10h141z" />
    <glyph glyph-name="uni0417" unicode="&#x417;" horiz-adv-x="381" 
d="M115 736l6 -5l-25 -48q1 0 26 5t47 5q85 0 142.5 -43t57.5 -128q0 -41 -21.5 -74.5t-54.5 -53.5t-67.5 -30.5t-66.5 -11.5l1 7q81 -3 145 -52t65 -137q2 -75 -61.5 -123t-146.5 -48q-18 0 -30 1.5t-31.5 7.5t-24.5 7l31 -44l-8 -6l-84 79l6 6q21 -17 66.5 -25.5
t75.5 -8.5q51 0 106.5 43.5t55.5 110.5q0 46 -17.5 81t-46.5 54.5t-57.5 29t-59.5 12.5l1 18q88 11 133.5 45.5t44.5 111.5q-2 69 -45 114t-110 45q-65 0 -127 -44l-4 5z" />
    <glyph glyph-name="uni0418" unicode="&#x418;" horiz-adv-x="484" 
d="M106 0h-86v10l47 5v670l-47 5v10h140v-10l-47 -5v-623l265 638h86v-10l-47 -5v-670l47 -5v-10h-140v10l47 5v623z" />
    <glyph glyph-name="uni0419" unicode="&#x419;" horiz-adv-x="615" 
d="M376 802q11 0 19 -7.5t7 -18.5q-1 -23 -31 -38t-55 -15q-24 0 -54 15t-31 38q-1 11 6.5 18.5t19.5 7.5q11 0 18.5 -7t7.5 -17q0 -48 33 -48q34 0 34 48q0 10 7.5 17t18.5 7zM103 0h-83v10l47 5v671l-47 4v10h140v-10l-47 -4v-624l398 638h84v-10l-47 -4v-671l47 -5v-10
h-140v10l47 5v621z" />
    <glyph glyph-name="uni041A" unicode="&#x41a;" horiz-adv-x="524" 
d="M112 389v-375l47 -5v-10h-139v10l47 5v671l-47 5v10h139v-10l-47 -5v-287h20l296 287l-59 5v10h139v-10l-61 -5l-296 -289q28 -3 51.5 -8.5t41.5 -11t33.5 -18t26 -20.5t20.5 -27.5t15.5 -29.5t13.5 -36.5t11 -38t10.5 -45t11.5 -47.5q14 -61 25.5 -84.5t32.5 -23.5
q12 0 24 15t18 31l7 15q5 -9 5 -30q0 -22 -16 -33.5t-38 -11.5q-57 0 -97 122q-5 15 -13.5 46t-14 49t-16.5 46t-21.5 45t-27.5 36.5t-36 30t-46.5 17t-59.5 5.5z" />
    <glyph glyph-name="uni041B" unicode="&#x41b;" 
d="M360 721l84 -706l47 -5v-10h-140v10l46 5l-65 591l-236 -591l59 -5v-10h-140v10l63 4z" />
    <glyph glyph-name="uni041C" unicode="&#x41c;" horiz-adv-x="876" 
d="M439 444l146 277l232 -706l44 -4v-11h-38h-48h-51v11l46 4l-210 619l-133 -251l-142 257l-193 -624l60 -5v-11h-65h-16h-56v11l61 5l215 704z" />
    <glyph glyph-name="uni041D" unicode="&#x41d;" horiz-adv-x="614" 
d="M454 700h140v-10l-47 -5v-670l47 -5v-10h-140v10l47 5v356h-388v-356l47 -5v-10h-140v10l47 5v670l-47 5v10h140v-10l-47 -5v-297h388v297l-47 5v10z" />
    <glyph glyph-name="uni041E" unicode="&#x41e;" horiz-adv-x="519" 
d="M260 -16q-106 0 -175 107.5t-69 248.5q0 93 28.5 177t89 141t139.5 57q71 0 128 -52t86.5 -132.5t29.5 -171.5q0 -93 -28.5 -177t-89 -141t-139.5 -57zM272 17q98 0 152 85t54 211q0 61 -12.5 123t-37 118.5t-68 92t-99.5 35.5q-98 0 -152 -85t-54 -211q0 -61 12.5 -123
t37 -118.5t68 -92t99.5 -35.5z" />
    <glyph glyph-name="uni041F" unicode="&#x41f;" horiz-adv-x="613" 
d="M20 700h573v-10l-47 -7l1 -668l46 -5v-10h-139v10l47 5v669h-388v-669l47 -5v-10h-140v10l47 5v670l-47 5v10z" />
    <glyph glyph-name="uni0420" unicode="&#x420;" horiz-adv-x="423" 
d="M20 690v10h113q84 0 140.5 -13t85 -37.5t39 -52.5t10.5 -66q0 -59 -22 -96t-84.5 -60t-168.5 -23h-20v-337l47 -5v-10h-140v10l47 5v670zM113 367h20q119 0 174 32.5t55 130.5q0 83 -53.5 119.5t-175.5 36.5h-20v-319z" />
    <glyph glyph-name="uni0421" unicode="&#x421;" horiz-adv-x="516" 
d="M476 80l6 50q-19 -30 -33.5 -48.5t-41 -45t-60.5 -39.5t-75 -13q-115 0 -188.5 98.5t-73.5 276.5q0 92 31.5 172.5t96 133t150.5 52.5q89 0 157 -93l-15 44l7 4l44 -96l-9 -4q-30 55 -81.5 92.5t-110.5 37.5q-101 -1 -158 -99t-59 -246q-2 -170 53 -258t161 -89
q69 0 136 54.5t83 122.5l9 -2l-21 -108z" />
    <glyph glyph-name="uni0422" unicode="&#x422;" horiz-adv-x="515" 
d="M15 700h485v-126h-10l-19 109h-193v-668l47 -5v-10h-140v10l47 5v668h-188l-19 -109h-10v126z" />
    <glyph glyph-name="uni0423" unicode="&#x423;" horiz-adv-x="647" 
d="M505 689v10h127v-10l-53 -5l-414 -598q-68 -101 -108 -101t-49.5 21.5t24.5 50.5q5 -57 27 -57q29 0 94 99l199 286l-253 300l-43 5v10h146v-10l-45 -3l225 -266l181 263z" />
    <glyph glyph-name="uni0424" unicode="&#x424;" horiz-adv-x="1382" 
d="M665 17v162q-31 -85 -111 -137.5t-182 -52.5q-155 0 -257.5 109.5t-102.5 264.5q0 146 91.5 245.5t237.5 99.5q115 0 206.5 -70.5t117.5 -193.5v239l-47 4v12h140v-12l-47 -4v-184q28 90 111 149.5t190 59.5q155 0 258 -107t103 -265q0 -147 -91.5 -247t-238.5 -100
q-117 0 -207.5 65t-124.5 172v-209l47 -5v-12h-140v12zM407 20q104 0 177 65.5t81 164.5v54q-10 156 -106.5 263t-245.5 107q-114 0 -193.5 -75t-79.5 -187q0 -160 106.5 -276t260.5 -116zM1078 20q110 0 184.5 73t74.5 180q0 167 -98 284t-255 117q-114 0 -193.5 -75
t-79.5 -187q0 -160 106.5 -276t260.5 -116z" />
    <glyph glyph-name="uni0425" unicode="&#x425;" horiz-adv-x="629" 
d="M465 700h139v-10l-58 -5l-215 -315l237 -355l46 -5v-10h-140v10l47 5l-215 308l-212 -308l61 -5v-10h-140v10l61 5l221 327l-232 344l-46 4v10h140v-10l-45 -4l207 -297l206 296l-62 5v10z" />
    <glyph glyph-name="uni0426" unicode="&#x426;" horiz-adv-x="453" 
d="M292 700h141v-10l-47 -5v-666h47v-126h-10l-22 107h-381v10l47 8v667l-47 5v10h139v-10l-47 -5v-667h228v667l-48 5v10z" />
    <glyph glyph-name="uni0427" unicode="&#x427;" horiz-adv-x="614" 
d="M503 700h91v-10l-47 -5v-670l47 -5v-10h-140v10l47 5v631q-7 -29 -24.5 -62.5t-44 -68t-66 -56.5t-81.5 -21q-56 2 -99.5 28t-65 62t-35.5 71.5t-17 60.5l-3 25l-50 5v10h140v-10l-50 -5q0 -5 0.5 -12.5t4.5 -30.5t10.5 -43.5t20 -46t31 -44t46.5 -31.5t64 -13
q47 -1 86 20t62.5 50t40.5 64.5t23.5 60t8.5 41.5z" />
    <glyph glyph-name="uni0428" unicode="&#x428;" horiz-adv-x="616" 
d="M456 700h140v-10l-47 -5v-667l47 -8v-10h-576v10l47 8v667l-47 5v10h140v-10l-47 -5v-667h172v667l-47 5v10h140v-10l-47 -5v-667h172v667l-47 5v10z" />
    <glyph glyph-name="uni0429" unicode="&#x429;" horiz-adv-x="614" 
d="M455 700h139v-10l-46 -5v-666h46v-125h-10l-22 106h-542v10l47 8v667l-47 5v10h139v-10l-47 -5v-667h173v667l-48 5v10h140v-10l-46 -5v-667h171v667l-47 5v10z" />
    <glyph glyph-name="uni042A" unicode="&#x42a;" horiz-adv-x="459" 
d="M15 572v128h186v-10l-47 -6v-336h20q87 0 144 -14t84.5 -41.5t37 -55.5t9.5 -68q0 -17 -1 -28t-6.5 -31t-15 -33t-30 -29t-49 -25.5t-73 -16t-100.5 -6.5h-113v10l47 6v668h-65l-18 -112h-10zM154 15h20q73 0 119.5 9.5t70 31t31.5 47.5t8 67q0 93 -56 128t-173 35h-20
v-318z" />
    <glyph glyph-name="uni042B" unicode="&#x42b;" horiz-adv-x="598" 
d="M438 700h140v-10l-47 -5v-670l47 -5v-10h-140v10l47 5v670l-47 5v10zM133 0h-113v10l47 5v670l-47 5v10h140v-10l-47 -5v-337h20q150 0 212.5 -42t62.5 -127q0 -20 -1 -32t-6 -33t-15 -34.5t-30.5 -30t-49 -26.5t-73 -16.5t-100.5 -6.5zM362 169q0 88 -51 126t-178 38
h-20v-319h20q124 0 176.5 35.5t52.5 119.5z" />
    <glyph glyph-name="uni042C" unicode="&#x42c;" horiz-adv-x="418" 
d="M20 0v10l47 5v670l-47 5v10h140v-10l-47 -5v-337h20q106 0 168.5 -23t84.5 -60t22 -96q0 -38 -10.5 -66t-39 -52.5t-85 -37.5t-140.5 -13h-113zM133 333h-20v-319h20q122 0 175.5 36.5t53.5 119.5q0 98 -55 130.5t-174 32.5z" />
    <glyph glyph-name="uni042D" unicode="&#x42d;" horiz-adv-x="521" 
d="M34 123l7 -50l-9 -2l-21 107l9 2q17 -67 84 -122t135 -55q105 1 160 87.5t55 252.5h-333l-10 -77h-10v171h10l10 -77h332q-3 144 -60.5 239t-156.5 96q-59 0 -110.5 -37.5t-81.5 -92.5l-9 4l44 96l7 -4l-15 -43q69 92 157 92q86 0 150.5 -52.5t96 -132.5t31.5 -173
q0 -178 -73 -276.5t-188 -98.5q-41 0 -75.5 13t-61 39.5t-41 45t-33.5 48.5z" />
    <glyph glyph-name="uni042E" unicode="&#x42e;" horiz-adv-x="654" 
d="M395 -16q-106 0 -175 107.5t-69 248.5q0 93 28.5 177t89 141t139.5 57q71 0 128 -52t86.5 -132.5t29.5 -171.5q0 -93 -28.5 -177t-89 -141t-139.5 -57zM407 17q98 0 152 85t54 211q0 61 -12.5 123t-37 118.5t-68 92t-99.5 35.5q-98 0 -152 -85t-54 -211q0 -61 12.5 -123
t37 -118.5t68 -92t99.5 -35.5zM20 700h140v-10l-47 -4v-671l47 -5v-10h-140v10l47 5v670l-47 5v10zM111 387h47v-17h-47v17z" />
    <glyph glyph-name="uni042F" unicode="&#x42f;" horiz-adv-x="498" 
d="M386 368v316h-20q-51 0 -88 -6t-71 -21.5t-52 -47.5t-18 -80q0 -93 52.5 -127t176.5 -34h20zM478 699v-11l-47 -5v-667l47 -5v-10h-92h-48v10l48 5v337h-26q-34 0 -61 -7.5t-46 -23.5t-32.5 -32t-23.5 -42t-16 -44.5t-13.5 -48t-12.5 -44.5q-22 -70 -43.5 -93.5
t-51.5 -23.5q-53 0 -53 46q0 12 8 25q13 -60 44 -60q22 0 36 28t41 120q3 10 9.5 33.5t10 34.5t11 31t15 30.5t20 25t27 22.5t35.5 16t46 11q-56 5 -97 19t-63.5 31t-36 40t-17.5 42t-4 41q0 34 10.5 61t38 53t84.5 40.5t141 14.5h112z" />
    <glyph glyph-name="uni0430" unicode="&#x430;" horiz-adv-x="782" 
d="M402 721l322 -706l43 -6v-9h-140v9l42 3l-151 339h-268l-156 -336l61 -5v-10h-140v9l60 6zM387 645l-128 -275h251z" />
    <glyph glyph-name="uni0431" unicode="&#x431;" horiz-adv-x="290" 
d="M263 189q0 -90 -36.5 -139.5t-104.5 -49.5h-102v10l47 6v667l-47 7v10h255v-125h-10l-19 108h-133v-315h10q58 0 99 -47.5t41 -131.5zM112 15h10q32 0 52.5 14t29.5 41t11.5 54t1.5 65q-1 75 -20.5 119.5t-73.5 44.5h-10z" />
    <glyph glyph-name="uni0432" unicode="&#x432;" horiz-adv-x="276" 
d="M113 685v-318h10q90 0 90 163v20v23.5t-1 21.5t-4 24t-7 20t-11 19.5t-16 13t-22 10.5t-29 3h-10zM154 360q53 -15 80 -61t27 -112q0 -187 -138 -187h-103v10l47 5v670l-47 5v10h103q70 0 103 -46t33 -120q0 -148 -105 -174zM113 14h10q22 0 39 7.5t26.5 23.5t15.5 30.5
t8 38t2.5 35t0.5 33.5q0 26 -3.5 51t-12 53.5t-28.5 46t-48 17.5h-10v-336z" />
    <glyph glyph-name="uni0433" unicode="&#x433;" horiz-adv-x="427" 
d="M20 700h392v-126h-10l-19 109h-270v-668l47 -5v-10h-140v10l47 5v668l-47 7v10z" />
    <glyph glyph-name="uni0434" unicode="&#x434;" horiz-adv-x="778" 
d="M398 723l322 -707h43v-137h-10l-29 121h-676l-28 -121h-10v137h61zM382 647l-292 -631h574z" />
    <glyph glyph-name="uni0435" unicode="&#x435;" horiz-adv-x="278" 
d="M20 700h243v-126h-9l-17 109h-124v-253h63l7 74h11l2 -185h-11l-9 94h-63v-398h119l13 100h11v-115h-236v10l47 5v668l-47 7v10z" />
    <glyph glyph-name="uni0436" unicode="&#x436;" horiz-adv-x="687" 
d="M669 38q8 -22 -3 -34t-33 -12q-21 0 -53.5 28.5t-53.5 90.5q-13 39 -25 105t-23 98q-7 21 -24.5 35.5t-36.5 20.5t-31.5 8.5t-18.5 2.5v-366l46 -5v-10h-139v10l47 5v365q-10 0 -28 -3t-45.5 -20t-36.5 -44q-11 -32 -22.5 -98t-24.5 -105q-15 -43 -40.5 -72t-43 -38
t-28.5 -9q-23 0 -35 14q-4 7 -4 14t3 13l2 5q12 -30 32 -30q18 0 34.5 17t33.5 71q17 52 27 125.5t25 101.5q32 59 117 68l-186 295l-61 5v10h140v-10l-60 -5l186 -293h15v293l-47 5v10h139v-10l-46 -5v-292h14l185 292l-59 5v10h139v-10l-60 -5l-186 -294q88 -10 119 -68
q15 -27 25 -100.5t28 -126.5q18 -55 32 -71.5t32 -16.5q8 0 16.5 7.5t12.5 14.5z" />
    <glyph glyph-name="uni0437" unicode="&#x437;" horiz-adv-x="288" 
d="M112 349v12q32 2 58 20t39.5 45.5t20 60.5t-0.5 66t-22 60.5t-44.5 45t-67.5 18.5q-29 -5 -50 -34l-8 6l82 89l8 -6l-24 -39h-1q70 0 121.5 -43.5t53.5 -104.5q4 -71 -32 -121t-91 -72q54 -14 88.5 -59.5t34.5 -117.5q0 -76 -63 -127.5t-139 -56.5l22 -38l-10 -6l-82 92
l7 5q25 -27 55 -37q49 1 89 33.5t57 79t17 94.5t-31 86.5t-87 48.5z" />
    <glyph glyph-name="uni0438" unicode="&#x438;" horiz-adv-x="616" 
d="M103 0h-83v10l47 5v670l-47 5v10h140v-10l-47 -5v-623l400 638h83v-10l-47 -5v-670l47 -5v-10h-140v10l47 5v623z" />
    <glyph glyph-name="uni0439" unicode="&#x439;" horiz-adv-x="484" 
d="M298 802q12 0 19.5 -7t6.5 -19q-1 -24 -26.5 -38.5t-47.5 -14.5q-24 0 -49.5 14.5t-26.5 38.5q-1 10 7 18t19 8t19 -7.5t8 -17.5q0 -20 1 -28t6 -13.5t16 -5.5q15 0 18.5 9.5t3.5 37.5q0 10 7.5 17.5t18.5 7.5zM378 700h86v-10l-46 -4v-671l46 -5v-10h-140v10l47 5v623
l-265 -638h-86v10l47 5v671l-47 4v10h140v-10l-47 -4v-624z" />
    <glyph glyph-name="uni043A" unicode="&#x43a;" horiz-adv-x="429" 
d="M416 37q7 -20 -1 -30q-12 -14 -33 -14q-11 0 -28.5 8.5t-43 37t-40.5 71.5q-14 40 -25.5 106.5t-21.5 97.5q-9 28 -38 44.5t-46 19.5t-26 3v-366l46 -5v-10h-139v10l47 5l-1 670l-46 5v10h139v-10l-46 -5v-293q3 2 15 0l186 293l-60 5v10h140v-10l-61 -5l-186 -294
q86 -12 117 -69q15 -28 25 -101t27 -126q12 -37 26 -58.5t23.5 -26.5t18.5 -3q7 2 15 9.5t13 13.5z" />
    <glyph glyph-name="uni043B" unicode="&#x43b;" horiz-adv-x="782" 
d="M402 721l322 -705l43 -6v-10h-140v10l42 3l-282 632l-293 -631l61 -4v-10h-140v10l60 4z" />
    <glyph glyph-name="uni043C" unicode="&#x43c;" horiz-adv-x="730" 
d="M483 721l185 -707l47 -4v-10h-138v10l44 4l-161 619l-110 -222l-120 226l-137 -623l59 -4v-10h-137v10l60 4l159 706l128 -248z" />
    <glyph glyph-name="uni043D" unicode="&#x43d;" horiz-adv-x="484" 
d="M325 700h139v-10l-47 -5v-670l47 -5v-10h-139v10l47 5v356h-259v-356l47 -5v-10h-140v10l47 5v670l-47 5v10h140v-10l-47 -5v-297h259v297l-47 5v10z" />
    <glyph glyph-name="uni043E" unicode="&#x43e;" horiz-adv-x="721" 
d="M344 718q154 0 257.5 -111.5t103.5 -270.5q0 -147 -91.5 -247t-238.5 -100q-155 0 -257.5 109.5t-102.5 264.5q0 148 92 251.5t237 103.5zM410 20q110 0 184.5 73t74.5 180q0 181 -93.5 296t-259.5 115q-113 0 -193 -79.5t-80 -192.5q0 -165 105.5 -278.5t261.5 -113.5z
" />
    <glyph glyph-name="uni043F" unicode="&#x43f;" horiz-adv-x="464" 
d="M20 700h424v-10l-47 -7v-668l47 -5v-10h-140v10l47 5v669l-238 -1v-668l47 -5v-10h-140v10l47 5v670l-47 5v10z" />
    <glyph glyph-name="uni0440" unicode="&#x440;" horiz-adv-x="282" 
d="M262 532q0 -74 -34.5 -126t-105.5 -52h-9v-339l47 -5v-10h-140v10l47 5v670l-47 5v10h103q62 0 100.5 -49.5t38.5 -118.5zM113 369h9q27 0 46 11t28.5 25t14 39.5t5 42t0.5 45.5q-2 154 -94 154h-9v-317z" />
    <glyph glyph-name="uni0441" unicode="&#x441;" horiz-adv-x="655" 
d="M612 69l6 53q-29 -47 -106.5 -89.5t-173.5 -42.5q-53 0 -107 22t-100 62t-77 103t-37 138q-13 173 90.5 285t260.5 113q63 0 119.5 -22.5t88.5 -51.5l-14 46l7 3l48 -99l-9 -5q-31 54 -106.5 84.5t-143.5 30.5q-121 0 -208 -91t-87 -231q0 -97 36 -178.5t109 -133
t170 -51.5q74 0 153 49.5t104 118.5l10 -3l-24 -112z" />
    <glyph glyph-name="uni0442" unicode="&#x442;" horiz-adv-x="361" 
d="M15 700h331v-125h-10l-19 108h-114v-668l47 -5v-10h-140v10l47 5v668h-113l-19 -108h-10v125z" />
    <glyph glyph-name="uni0443" unicode="&#x443;" horiz-adv-x="489" 
d="M339 690v10h135v-10l-58 -4l-277 -680q-4 -12 -19 -20t-22 -8q-30 0 -39 19q-6 12 3 44q9 -21 11 -25q13 -24 28 -23q10 0 14.5 4.5t12.5 21.5l125 306l-193 360l-45 5v10h135v-10l-46 -5l167 -315q0 3 128 316z" />
    <glyph glyph-name="uni0444" unicode="&#x444;" horiz-adv-x="982" 
d="M465 14v152q-12 -88 -70 -135t-146 -47q-66 0 -120.5 51.5t-84 130.5t-29.5 164q0 74 15.5 141t46.5 122.5t84 88.5t121 33q63 0 118 -55t64 -148v174l-46 4v10h139v-10l-46 -4v-158q16 82 81 134.5t149 52.5q107 0 166.5 -100t59.5 -281q0 -161 -62 -255.5t-186 -94.5
q-73 0 -134.5 64t-73.5 158v-192l46 -4v-10h-139v10zM266 17q100 0 149.5 63.5t49.5 202.5q0 184 -51 294.5t-152 110.5q-103 0 -155.5 -81t-52.5 -203q0 -63 11 -126.5t34.5 -124t66.5 -98.5t100 -38zM736 17q99 0 145.5 62t46.5 204q0 189 -52.5 297t-154.5 108
q-101 0 -154 -81t-53 -203q0 -63 12 -126.5t36.5 -124t69.5 -98.5t104 -38z" />
    <glyph glyph-name="uni0445" unicode="&#x445;" horiz-adv-x="479" 
d="M325 700h139v-10l-61 -5l-142 -316l158 -354l45 -5v-10h-140v10l41 5l-133 313l-139 -313l62 -5v-10h-140v10l59 5l148 328l-150 342l-44 5v10h140v-10l-41 -5l124 -300l135 300l-61 5v10z" />
    <glyph glyph-name="uni0446" unicode="&#x446;" horiz-adv-x="612" 
d="M452 700h140v-10l-47 -5v-667h47v-124h-12l-31 106h-529v10l47 8v667l-47 5v10h139v-10l-47 -5l1 -667h386v667l-47 5v10z" />
    <glyph glyph-name="uni0447" unicode="&#x447;" horiz-adv-x="474" 
d="M362 700h92v-10l-47 -5v-670l47 -5v-10h-139v10l47 5l-1 594q-8 -70 -43 -113.5t-102 -43.5q-34 0 -61 13t-42.5 35t-26 45t-14.5 50.5t-5.5 43t-1.5 30.5v16l-50 5v10h140v-10l-50 -5v-16v-7q-2 -195 112 -195q35 0 62 16.5t41.5 41t24 55t12 54.5t4 44.5t1.5 21.5z" />
    <glyph glyph-name="uni0448" unicode="&#x448;" horiz-adv-x="889" 
d="M729 700h140v-10l-47 -5v-667l47 -8v-10h-849v10l47 8v667l-47 5v10h140v-10l-47 -5v-667h309v667l-47 5v10h140v-10l-48 -5l1 -667h308v667l-47 5v10z" />
    <glyph glyph-name="uni0449" unicode="&#x449;" horiz-adv-x="885" 
d="M726 700h139v-10l-47 -5v-667h47v-127h-12l-30 109h-803v10l47 8v667l-47 5v10h139v-10l-47 -5v-667h308v667l-47 5v10h139v-10l-47 -5v-667h307v667l-46 5v10z" />
    <glyph glyph-name="uni044A" unicode="&#x44a;" horiz-adv-x="316" 
d="M15 573v127h188v-10l-47 -5v-318h7q63 0 103 -51.5t40 -121.5q0 -89 -37 -141.5t-106 -52.5h-100v10l47 5v670h-67l-18 -112h-10zM156 15h7q56 0 76.5 43.5t20.5 135.5q0 72 -25 115t-72 43h-7v-337z" />
    <glyph glyph-name="uni044B" unicode="&#x44b;" horiz-adv-x="423" 
d="M263 700h140v-10l-47 -5v-670l47 -5v-10h-140v10l47 5v670l-47 5v10zM121 0h-101v10l47 5v670l-47 5v10h140v-10l-47 -5v-318h7q67 0 105 -51.5t38 -121.5q0 -87 -36.5 -140.5t-105.5 -53.5zM113 15h7q60 0 78.5 41.5t18.5 134.5q0 161 -97 161h-7v-337z" />
    <glyph glyph-name="uni044C" unicode="&#x44c;" horiz-adv-x="273" 
d="M121 0h-101v10l47 5v670l-47 5v10h140v-10l-47 -5v-318h7q67 0 105 -51.5t38 -121.5q0 -87 -36.5 -140.5t-105.5 -53.5zM113 15h7q60 0 78.5 41.5t18.5 134.5q0 161 -97 161h-7v-337z" />
    <glyph glyph-name="uni044D" unicode="&#x44d;" horiz-adv-x="650" 
d="M111 437h10l10 -77h461v17q0 141 -87 232t-208 91q-68 0 -143.5 -31t-106.5 -85l-9 5l48 99l7 -3l-14 -46q32 29 88.5 51.5t119.5 22.5q157 -1 260.5 -113t90.5 -285q-6 -75 -37 -138t-77 -103t-100 -62t-107 -22q-96 0 -173.5 42.5t-106.5 89.5l6 -53l-9 -2l-24 113
l10 2q25 -69 104 -118.5t153 -49.5q136 0 220 94.5t94 234.5h-460l-10 -77h-10v171z" />
    <glyph glyph-name="uni044E" unicode="&#x44e;" horiz-adv-x="846" 
d="M20 700h140v-10l-47 -4v-299h33q8 138 98 229.5t230 91.5q155 0 258 -107t103 -265q0 -147 -91.5 -247t-238.5 -100q-155 0 -257.5 111t-102.5 270h-32v-355l47 -5v-10h-140v10l47 5v670l-47 5v10zM540 20q110 0 184.5 73t74.5 180q0 179 -93.5 290t-259.5 111
q-114 0 -193.5 -75t-79.5 -187q0 -165 105.5 -278.5t261.5 -113.5z" />
    <glyph glyph-name="uni044F" unicode="&#x44f;" horiz-adv-x="374" 
d="M112 531q0 169 139 169h103v-10l-47 -5v-670l47 -5v-10h-140v10l47 5v326q-35 0 -57.5 -16t-33 -45t-15.5 -58t-10.5 -67t-12.5 -60q-13 -40 -33.5 -66.5t-34.5 -34t-23 -7.5q-25 0 -32 15q-2 5 -1 12t2 13l2 6q9 -33 27 -33q34 0 59 85q9 27 13.5 68t8.5 70.5t14.5 59.5
t36.5 48t70 22q-56 4 -92.5 53.5t-36.5 124.5zM251 367h10v319h-10q-99 0 -93 -158q5 -161 93 -161z" />
    <glyph glyph-name="uni0451" unicode="&#x451;" horiz-adv-x="387" 
d="M20 700h352v-127h-11l-16 111h-232v-255h127l9 74h10l1 -185h-10l-9 93h-128v-396h232l17 100h10v-115h-352v10l47 5v669l-47 6v10zM179 767q0 -11 -7.5 -18t-17.5 -7t-17 7.5t-7 17.5t7 17t17 7t17.5 -7t7.5 -17zM302 767q0 -11 -7 -18t-18 -7q-10 0 -17 7.5t-7 17.5
t7 17t17 7t17.5 -7t7.5 -17z" />
    <glyph glyph-name="uni0455" unicode="&#x455;" horiz-adv-x="550" 
d="M514 633l28 -72l-5 -3q-15 25 -22 31q-128 103 -260 103q-41 0 -84.5 -15t-78.5 -52.5t-35 -89.5q0 -43 17 -72t50.5 -45t66 -24t82 -18.5t80.5 -20.5q89 -30 132 -72.5t43 -127.5q0 -54 -36 -93.5t-81.5 -56t-87.5 -16.5q-77 0 -155.5 47t-127.5 117l4 -35l-5 -1l-15 70
l5 1q6 -15 12 -25q34 -56 117 -102.5t152 -46.5q66 0 117 38.5t51 107.5q0 147 -170 189q-18 5 -55 13.5t-59 14t-54 16t-51 22.5t-38 28.5t-28 39.5t-9 51q0 55 38.5 99t91.5 65.5t104 21.5q69 0 140.5 -35t129.5 -89l-9 35z" />
    <glyph glyph-name="uni0456" unicode="&#x456;" horiz-adv-x="180" 
d="M20 700h140v-10l-47 -5v-670l47 -5v-10h-140v10l47 5v670l-47 5v10z" />
    <glyph glyph-name="uni0457" unicode="&#x457;" horiz-adv-x="182" 
d="M20 700h140v-10l-47 -5v-670l47 -5v-10h-140v10l47 5v670l-47 5v10zM70 766q0 -10 -6.5 -17t-16.5 -7t-17.5 7t-7.5 17t7 17.5t18 7.5q10 0 16.5 -7t6.5 -18zM162 766q0 -10 -7.5 -17t-17.5 -7t-17 7t-7 17t7 17.5t17 7.5q11 0 18 -7.5t7 -17.5z" />
    <glyph glyph-name="uni0458" unicode="&#x458;" horiz-adv-x="182" 
d="M-1 -58l-5 7q22 19 41 47.5t23 45.5q11 43 11 92v551l-47 5v10h140v-10l-47 -5v-541q0 -11 -0.5 -21t-1 -18t-1 -14t-2.5 -12.5t-2.5 -10t-3 -9t-3 -7t-3 -7.5t-3.5 -7q-24 -54 -96 -96z" />
    <glyph glyph-name="uni2010" unicode="&#x2010;" horiz-adv-x="275" 
d="M20 291v17h235v-17h-235z" />
    <glyph glyph-name="endash" unicode="&#x2013;" horiz-adv-x="365" 
d="M20 271v17h325v-17h-325z" />
    <glyph glyph-name="emdash" unicode="&#x2014;" horiz-adv-x="595" 
d="M20 251v17h555v-17h-555z" />
    </font>
</defs>
</svg>
