<svg width="124" height="124" viewBox="0 0 124 124" fill="none" xmlns="http://www.w3.org/2000/svg">
<circle cx="62" cy="62" r="62" fill="#D9D9D9"/>
<g clip-path="url(#clip0_193_1060)">
<path d="M107 45.2109H17V78.065H107V45.2109Z" fill="#BCBEC0"/>
<path d="M60.9324 61.1464C60.9246 56.9722 62.1676 52.8895 64.5042 49.4146C66.8408 45.9397 70.166 43.2286 74.0594 41.6242C77.9527 40.0198 82.2393 39.5941 86.3771 40.401C90.5149 41.2079 94.318 43.2112 97.3054 46.1574C100.293 49.1036 102.331 52.8605 103.161 56.953C103.991 61.0455 103.576 65.2897 101.969 69.1489C100.363 73.0082 97.6354 76.3091 94.133 78.6343C90.6306 80.9595 86.5102 82.2045 82.2929 82.2119C70.5278 82.2305 60.9478 72.7842 60.9324 61.1464Z" fill="url(#paint0_radial_193_1060)"/>
<path d="M20.2134 53.2528H27.6375V75.9797H34.0505V53.2528H41.4352V47.4678H20.2134V53.2528Z" fill="white"/>
<path d="M66.175 63.6628C65.8241 63.045 65.3927 62.4756 64.8917 61.9693C64.539 61.6129 64.1443 61.2996 63.7162 61.0362C64.6184 60.4727 65.3515 59.6803 65.8396 58.7415C66.395 57.7158 66.6953 56.5738 66.7157 55.4103C66.7176 54.3901 66.544 53.3771 66.2024 52.4145C65.865 51.461 65.3293 50.5881 64.6299 49.8522C63.8807 49.0827 62.9702 48.4849 61.9624 48.1011C60.9016 47.6812 59.6269 47.4678 58.1725 47.4678H45.1687V75.9797H58.7012C59.9582 76.0038 61.2063 75.7661 62.3645 75.282C63.3768 74.8466 64.2838 74.2029 65.0252 73.3937C65.7439 72.5926 66.2963 71.6592 66.6506 70.6468C67.022 69.5831 67.2083 68.4648 67.2016 67.3394C67.1953 66.7263 67.1084 66.1166 66.9432 65.5257C66.7661 64.8756 66.508 64.2499 66.175 63.6628ZM51.5833 64.015H57.0792C58.1622 64.015 58.9801 64.2962 59.579 64.872C60.1778 65.4478 60.4636 66.1912 60.4636 67.1446C60.4636 68.0981 60.1932 68.8382 59.6371 69.3801C59.0811 69.922 58.2409 70.1947 57.1185 70.1947H51.5833V64.015ZM59.3206 57.766C58.7543 58.2334 57.9312 58.4705 56.8773 58.4705H51.5833V53.2528H56.7951C57.9792 53.2528 58.8484 53.4865 59.3702 53.9488C59.8921 54.4112 60.1402 55.0632 60.1402 55.9607C60.1551 56.3038 60.0888 56.6456 59.9465 56.9587C59.8042 57.2719 59.5899 57.5478 59.3206 57.7643V57.766Z" fill="white"/>
<path d="M86.9913 47.4678V65.8711C87.0136 66.6029 86.8759 67.3308 86.5875 68.0049C86.3429 68.5437 85.9812 69.0224 85.5284 69.4072C85.0859 69.7731 84.5731 70.0468 84.021 70.2116C82.8785 70.5614 81.6559 70.5614 80.5134 70.2116C79.9613 70.0468 79.4485 69.7731 79.006 69.4072C78.5529 69.0227 78.1913 68.5439 77.9469 68.0049C77.658 67.3309 77.5202 66.6029 77.5431 65.8711V47.4678H71.1284V66.8838C71.1284 68.447 71.445 69.8306 72.0695 70.9974C72.6747 72.1397 73.5229 73.1387 74.5556 73.9255C75.6223 74.7252 76.8304 75.3208 78.118 75.6816C79.4594 76.0677 80.8496 76.2627 82.2467 76.2608C83.6464 76.2622 85.0387 76.0596 86.3788 75.6596C87.6721 75.2837 88.8852 74.677 89.9583 73.8696C90.9996 73.0693 91.8521 72.0538 92.4564 70.8941C93.0792 69.7086 93.3957 68.3233 93.3957 66.7636V47.4678H86.9913Z" fill="white"/>
<path d="M97.1495 74.6705L91.2892 68.0049C88.7894 68.4181 87.8347 70.6044 85.4102 70.9465L92.1602 78.6503C93.113 78.1335 94.0142 77.5285 94.8516 76.8433C95.6757 76.1817 96.4441 75.4551 97.1495 74.6705Z" fill="white"/>
<path opacity="0.21" d="M96.7048 74.8857L93.1544 75.9442C90.6546 76.3574 92.6274 75.658 90.2029 76.0001L92.2441 78.3354C93.1946 77.8183 94.0935 77.2133 94.9287 76.5284C96.496 75.238 96.7048 74.8857 96.7048 74.8857Z" fill="url(#paint1_linear_193_1060)"/>
<path style="mix-blend-mode:overlay" d="M98.8537 51.6627C98.3763 54.5772 90.0436 56.4062 79.2231 55.5798C70.3942 54.9024 66.9037 51.1547 66.8216 50.0386C66.5033 45.8167 76.5744 41.273 81.2199 41.063C91.8197 40.5973 99.4577 47.9793 98.8537 51.6627Z" fill="url(#paint2_linear_193_1060)"/>
<path style="mix-blend-mode:screen" opacity="0.8" d="M98.8197 51.2258C98.344 54.1403 90.0113 55.9676 79.1908 55.1344C70.3619 54.457 66.8183 50.7126 66.7893 49.5932C66.678 45.2951 76.655 41.4339 81.3073 41.2307C91.9054 40.7666 99.4237 47.5424 98.8197 51.2258Z" fill="url(#paint3_linear_193_1060)"/>
<path style="mix-blend-mode:screen" opacity="0.1" d="M98.8197 51.2259C98.344 54.1404 90.0113 55.9677 79.1908 55.1345C70.3619 54.4571 67.1897 51.3224 67.1058 50.2047C66.7876 45.9828 76.1486 41.8828 80.794 41.5678C91.0756 40.8735 99.4237 47.5425 98.8197 51.2259Z" fill="url(#paint4_linear_193_1060)"/>
<path style="mix-blend-mode:screen" opacity="0.16" d="M95.8526 48.4522C95.5104 50.8367 88.153 52.6961 78.4959 52.5082C70.615 52.3541 66.979 49.4277 67.2887 48.5725C68.045 46.481 75.375 42.2133 79.5089 41.8238C88.4918 40.9771 96.2769 45.4361 95.8526 48.4522Z" fill="url(#paint5_linear_193_1060)"/>
<path style="mix-blend-mode:overlay" opacity="0.5" d="M68.1904 50.0284C68.2501 49.395 68.3646 48.7678 68.5326 48.1537C68.7192 47.5365 68.962 46.9374 69.2581 46.3637C69.2581 46.3637 73.7222 42.1299 80.9615 41.654C88.2009 41.1781 93.2467 43.9741 93.6112 44.2332C93.9756 44.4923 95.4693 47.7896 95.4693 47.7896C95.4693 47.7896 90.3055 43.9623 80.9923 44.7921C75.1748 45.312 71.2172 47.8522 68.1904 50.0284Z" fill="url(#paint6_linear_193_1060)"/>
<path style="mix-blend-mode:overlay" opacity="0.4" d="M80.9633 41.7389C88.2027 41.2681 93.0038 44.4485 93.3683 44.7025C93.7327 44.9565 95.4694 47.7898 95.4694 47.7898C95.4694 47.7898 90.3055 43.9624 80.9924 44.7923C75.1749 45.3122 73.724 42.2012 80.9633 41.7389Z" fill="url(#paint7_linear_193_1060)"/>
<path style="mix-blend-mode:screen" opacity="0.5" d="M68.1904 50.0287C68.2501 49.3953 68.3646 48.7681 68.5326 48.154C68.7192 47.5368 68.962 46.9377 69.2581 46.364C69.2581 46.364 73.4638 41.8626 80.7066 41.4003C87.9494 40.938 93.2604 44.4486 93.6248 44.7026C93.9893 44.9567 95.4693 47.7899 95.4693 47.7899C95.4693 47.7899 90.3055 43.9626 80.9923 44.7924C75.1748 45.3123 71.2172 47.8526 68.1904 50.0287Z" fill="url(#paint8_linear_193_1060)"/>
<g opacity="0.21">
<path d="M52.0812 47.6953L45.4082 47.7089V50.8283L52.0812 47.6953Z" fill="url(#paint9_linear_193_1060)"/>
<path d="M27.1208 47.709L20.4495 47.7225V50.842L27.1208 47.709Z" fill="url(#paint10_linear_193_1060)"/>
<path d="M78.0443 47.709L71.373 47.7225V50.842L78.0443 47.709Z" fill="url(#paint11_linear_193_1060)"/>
<path d="M93.8935 47.709L87.2222 47.7225V50.842L93.8935 47.709Z" fill="url(#paint12_linear_193_1060)"/>
</g>
</g>
<defs>
<radialGradient id="paint0_radial_193_1060" cx="0" cy="0" r="1" gradientUnits="userSpaceOnUse" gradientTransform="translate(69.7989 48.3451) scale(34.2565 33.9057)">
<stop stop-color="#ED1C24"/>
<stop offset="1" stop-color="#C1272D"/>
</radialGradient>
<linearGradient id="paint1_linear_193_1060" x1="93.9962" y1="77.9696" x2="93.4392" y2="75.3237" gradientUnits="userSpaceOnUse">
<stop offset="0.01" stop-color="#ED1C24"/>
<stop offset="0.03" stop-color="#ED1C24" stop-opacity="0.94"/>
<stop offset="0.14" stop-color="#ED1C24" stop-opacity="0.72"/>
<stop offset="0.24" stop-color="#ED1C24" stop-opacity="0.53"/>
<stop offset="0.35" stop-color="#ED1C24" stop-opacity="0.37"/>
<stop offset="0.47" stop-color="#ED1C24" stop-opacity="0.23"/>
<stop offset="0.58" stop-color="#ED1C24" stop-opacity="0.13"/>
<stop offset="0.71" stop-color="#ED1C24" stop-opacity="0.06"/>
<stop offset="0.84" stop-color="#ED1C24" stop-opacity="0.01"/>
<stop offset="1" stop-color="#ED1C24" stop-opacity="0"/>
</linearGradient>
<linearGradient id="paint2_linear_193_1060" x1="66.7993" y1="49.6762" x2="98.6006" y2="47.2773" gradientUnits="userSpaceOnUse">
<stop stop-color="white" stop-opacity="0"/>
<stop offset="0.1" stop-color="white" stop-opacity="0.02"/>
<stop offset="0.23" stop-color="white" stop-opacity="0.08"/>
<stop offset="0.36" stop-color="white" stop-opacity="0.17"/>
<stop offset="0.5" stop-color="white" stop-opacity="0.3"/>
<stop offset="0.65" stop-color="white" stop-opacity="0.47"/>
<stop offset="0.8" stop-color="white" stop-opacity="0.67"/>
<stop offset="0.95" stop-color="white" stop-opacity="0.91"/>
<stop offset="1" stop-color="white"/>
</linearGradient>
<linearGradient id="paint3_linear_193_1060" x1="66.7878" y1="49.5446" x2="98.5892" y2="47.1456" gradientUnits="userSpaceOnUse">
<stop stop-color="white" stop-opacity="0"/>
<stop offset="0.35" stop-color="white" stop-opacity="0.01"/>
<stop offset="0.48" stop-color="white" stop-opacity="0.03"/>
<stop offset="0.58" stop-color="white" stop-opacity="0.08"/>
<stop offset="0.66" stop-color="white" stop-opacity="0.15"/>
<stop offset="0.73" stop-color="white" stop-opacity="0.24"/>
<stop offset="0.8" stop-color="white" stop-opacity="0.35"/>
<stop offset="0.85" stop-color="white" stop-opacity="0.48"/>
<stop offset="0.9" stop-color="white" stop-opacity="0.63"/>
<stop offset="0.95" stop-color="white" stop-opacity="0.8"/>
<stop offset="1" stop-color="white"/>
</linearGradient>
<linearGradient id="paint4_linear_193_1060" x1="82.2638" y1="55.6117" x2="84.1502" y2="41.5695" gradientUnits="userSpaceOnUse">
<stop offset="0.06" stop-color="white"/>
<stop offset="0.33" stop-color="white" stop-opacity="0"/>
</linearGradient>
<linearGradient id="paint5_linear_193_1060" x1="77.1714" y1="41.6201" x2="84.6173" y2="55.6446" gradientUnits="userSpaceOnUse">
<stop stop-color="white" stop-opacity="0"/>
<stop offset="0.12" stop-color="white" stop-opacity="0.01"/>
<stop offset="0.23" stop-color="white" stop-opacity="0.06"/>
<stop offset="0.33" stop-color="white" stop-opacity="0.13"/>
<stop offset="0.43" stop-color="white" stop-opacity="0.23"/>
<stop offset="0.53" stop-color="white" stop-opacity="0.36"/>
<stop offset="0.63" stop-color="white" stop-opacity="0.52"/>
<stop offset="0.72" stop-color="white" stop-opacity="0.71"/>
<stop offset="0.82" stop-color="white" stop-opacity="0.92"/>
<stop offset="0.85" stop-color="white"/>
</linearGradient>
<linearGradient id="paint6_linear_193_1060" x1="77.7648" y1="40.6459" x2="86.8522" y2="54.3643" gradientUnits="userSpaceOnUse">
<stop offset="0.02" stop-color="white" stop-opacity="0.86"/>
<stop offset="0.28" stop-color="white" stop-opacity="0.11"/>
<stop offset="0.36" stop-color="white" stop-opacity="0.13"/>
<stop offset="0.42" stop-color="white" stop-opacity="0.16"/>
<stop offset="0.47" stop-color="white" stop-opacity="0.23"/>
<stop offset="0.52" stop-color="white" stop-opacity="0.31"/>
<stop offset="0.57" stop-color="white" stop-opacity="0.43"/>
<stop offset="0.64" stop-color="white" stop-opacity="0.55"/>
<stop offset="0.76" stop-color="white" stop-opacity="0.74"/>
<stop offset="0.86" stop-color="white" stop-opacity="0.88"/>
<stop offset="0.95" stop-color="white" stop-opacity="0.97"/>
<stop offset="1" stop-color="white"/>
</linearGradient>
<linearGradient id="paint7_linear_193_1060" x1="85.8888" y1="46.289" x2="86.814" y2="41.8757" gradientUnits="userSpaceOnUse">
<stop offset="0.39" stop-color="white"/>
<stop offset="0.4" stop-color="white" stop-opacity="0.92"/>
<stop offset="0.43" stop-color="white" stop-opacity="0.75"/>
<stop offset="0.47" stop-color="white" stop-opacity="0.6"/>
<stop offset="0.5" stop-color="white" stop-opacity="0.47"/>
<stop offset="0.54" stop-color="white" stop-opacity="0.36"/>
<stop offset="0.59" stop-color="white" stop-opacity="0.27"/>
<stop offset="0.64" stop-color="white" stop-opacity="0.2"/>
<stop offset="0.71" stop-color="white" stop-opacity="0.15"/>
<stop offset="0.79" stop-color="white" stop-opacity="0.12"/>
<stop offset="1" stop-color="white" stop-opacity="0.11"/>
</linearGradient>
<linearGradient id="paint8_linear_193_1060" x1="77.6663" y1="40.556" x2="86.8264" y2="54.3869" gradientUnits="userSpaceOnUse">
<stop stop-color="white" stop-opacity="0.86"/>
<stop offset="0.11" stop-color="white" stop-opacity="0.11"/>
</linearGradient>
<linearGradient id="paint9_linear_193_1060" x1="47.1671" y1="46.6623" x2="48.9047" y2="49.5841" gradientUnits="userSpaceOnUse">
<stop stop-color="#231F20"/>
<stop offset="0.06" stop-color="#231F20" stop-opacity="0.86"/>
<stop offset="0.33" stop-color="#231F20" stop-opacity="0.38"/>
<stop offset="0.63" stop-color="#231F20" stop-opacity="0.09"/>
<stop offset="1" stop-color="#231F20" stop-opacity="0"/>
</linearGradient>
<linearGradient id="paint10_linear_193_1060" x1="22.2067" y1="46.6776" x2="23.9442" y2="49.5978" gradientUnits="userSpaceOnUse">
<stop stop-color="#231F20"/>
<stop offset="0.06" stop-color="#231F20" stop-opacity="0.86"/>
<stop offset="0.33" stop-color="#231F20" stop-opacity="0.38"/>
<stop offset="0.63" stop-color="#231F20" stop-opacity="0.09"/>
<stop offset="1" stop-color="#231F20" stop-opacity="0"/>
</linearGradient>
<linearGradient id="paint11_linear_193_1060" x1="73.132" y1="46.6776" x2="74.8695" y2="49.5978" gradientUnits="userSpaceOnUse">
<stop offset="0.01" stop-color="#ED1C24"/>
<stop offset="0.03" stop-color="#ED1C24" stop-opacity="0.94"/>
<stop offset="0.14" stop-color="#ED1C24" stop-opacity="0.72"/>
<stop offset="0.24" stop-color="#ED1C24" stop-opacity="0.53"/>
<stop offset="0.35" stop-color="#ED1C24" stop-opacity="0.37"/>
<stop offset="0.47" stop-color="#ED1C24" stop-opacity="0.23"/>
<stop offset="0.58" stop-color="#ED1C24" stop-opacity="0.13"/>
<stop offset="0.71" stop-color="#ED1C24" stop-opacity="0.06"/>
<stop offset="0.84" stop-color="#ED1C24" stop-opacity="0.01"/>
<stop offset="1" stop-color="#ED1C24" stop-opacity="0"/>
</linearGradient>
<linearGradient id="paint12_linear_193_1060" x1="88.9794" y1="46.6776" x2="90.7169" y2="49.5978" gradientUnits="userSpaceOnUse">
<stop offset="0.01" stop-color="#ED1C24"/>
<stop offset="0.03" stop-color="#ED1C24" stop-opacity="0.94"/>
<stop offset="0.14" stop-color="#ED1C24" stop-opacity="0.72"/>
<stop offset="0.24" stop-color="#ED1C24" stop-opacity="0.53"/>
<stop offset="0.35" stop-color="#ED1C24" stop-opacity="0.37"/>
<stop offset="0.47" stop-color="#ED1C24" stop-opacity="0.23"/>
<stop offset="0.58" stop-color="#ED1C24" stop-opacity="0.13"/>
<stop offset="0.71" stop-color="#ED1C24" stop-opacity="0.06"/>
<stop offset="0.84" stop-color="#ED1C24" stop-opacity="0.01"/>
<stop offset="1" stop-color="#ED1C24" stop-opacity="0"/>
</linearGradient>
<clipPath id="clip0_193_1060">
<rect width="90" height="42.2124" fill="white" transform="translate(17 40)"/>
</clipPath>
</defs>
</svg>
