<svg width="42" height="42" viewBox="0 0 42 42" fill="none" xmlns="http://www.w3.org/2000/svg">
<path d="M21.5151 19.8887C24.765 19.8887 27.4067 17.2517 27.4067 14.0096C27.4067 10.7659 24.765 8.12793 21.5151 8.12793C18.266 8.12793 15.6236 10.7659 15.6236 14.0096C15.6234 17.2517 18.266 19.8887 21.5151 19.8887ZM21.5151 11.5743C22.8606 11.5743 23.9545 12.6666 23.9545 14.0096C23.9545 15.3512 22.8606 16.4437 21.5151 16.4437C20.1712 16.4437 19.0757 15.3512 19.0757 14.0096C19.0757 12.6666 20.1711 11.5743 21.5151 11.5743Z" fill="black"/>
<path d="M23.8984 24.6849C25.0979 24.4121 26.2544 23.9387 27.3198 23.2707C28.126 22.7635 28.3691 21.6994 27.8609 20.8947C27.3533 20.0883 26.2883 19.8457 25.4806 20.3529C23.0673 21.8679 19.9603 21.8672 17.5483 20.3529C16.7406 19.8457 15.6756 20.0884 15.1688 20.8947C14.6607 21.7002 14.9031 22.7635 15.7093 23.2707C16.7743 23.9379 17.9311 24.4121 19.1304 24.6849L15.8366 27.9729C15.1632 28.6455 15.1632 29.7363 15.8373 30.4092C16.1747 30.7452 16.616 30.9137 17.0574 30.9137C17.4994 30.9137 17.9415 30.7454 18.2788 30.4092L21.514 27.1782L24.752 30.4092C25.4254 31.082 26.5182 31.082 27.1923 30.4092C27.867 29.7363 27.867 28.6449 27.1923 27.9729L23.8984 24.6849Z" fill="black"/>
<rect x="0.5" y="0.5" width="41" height="41" rx="4.5" stroke="black"/>
</svg>
