<svg width="29" height="28" viewBox="0 0 29 28" fill="none" xmlns="http://www.w3.org/2000/svg">
<path d="M15.0857 13.0275C17.2144 13.0275 18.9447 11.3003 18.9447 9.17673C18.9447 7.0521 17.2144 5.32422 15.0857 5.32422C12.9576 5.32422 11.2268 7.0521 11.2268 9.17673C11.2267 11.3003 12.9576 13.0275 15.0857 13.0275ZM15.0857 7.58158C15.967 7.58158 16.6835 8.29703 16.6835 9.17673C16.6835 10.0555 15.967 10.771 15.0857 10.771C14.2055 10.771 13.4879 10.0555 13.4879 9.17673C13.4879 8.29703 14.2054 7.58158 15.0857 7.58158Z" fill="white"/>
<path d="M16.6468 16.1693C17.4325 15.9905 18.19 15.6805 18.8878 15.2429C19.4159 14.9107 19.5751 14.2137 19.2422 13.6866C18.9098 13.1584 18.2122 12.9996 17.6831 13.3318C16.1024 14.3241 14.0673 14.3237 12.4875 13.3318C11.9584 12.9996 11.2609 13.1586 10.9289 13.6866C10.5962 14.2143 10.7549 14.9107 11.2829 15.2429C11.9805 15.68 12.7383 15.9905 13.5238 16.1693L11.3663 18.3228C10.9253 18.7634 10.9253 19.4779 11.3668 19.9186C11.5878 20.1387 11.8769 20.2491 12.1659 20.2491C12.4555 20.2491 12.7451 20.1388 12.966 19.9186L15.085 17.8023L17.2059 19.9186C17.647 20.3594 18.3628 20.3594 18.8043 19.9186C19.2462 19.4779 19.2462 18.763 18.8043 18.3228L16.6468 16.1693Z" fill="white"/>
<rect x="1.49341" y="0.5" width="26.5099" height="26.5099" rx="4.5" stroke="white"/>
</svg>
