<svg width="17" height="18" viewBox="0 0 17 18" fill="none" xmlns="http://www.w3.org/2000/svg">
<path fill-rule="evenodd" clip-rule="evenodd" d="M1.5 7.5C1.5 4.18629 4.18629 1.5 7.5 1.5C10.8137 1.5 13.5 4.18629 13.5 7.5C13.5 10.8137 10.8137 13.5 7.5 13.5C4.18629 13.5 1.5 10.8137 1.5 7.5ZM7.5 0.5C3.63401 0.5 0.5 3.63401 0.5 7.5C0.5 11.366 3.63401 14.5 7.5 14.5C9.0079 14.5 10.4044 14.0232 11.5471 13.2122C11.5711 13.2633 11.6042 13.3113 11.6464 13.3536L15.9464 17.6536C16.1417 17.8488 16.4583 17.8488 16.6536 17.6536C16.8488 17.4583 16.8488 17.1417 16.6536 16.9464L12.3536 12.6464C12.3357 12.6286 12.3168 12.6124 12.2972 12.5978C13.6533 11.3212 14.5 9.50947 14.5 7.5C14.5 3.63401 11.366 0.5 7.5 0.5Z" fill="black"/>
</svg>
