<svg width="28" height="28" viewBox="0 0 28 28" fill="none" xmlns="http://www.w3.org/2000/svg">
<path d="M23.3003 5.88257C22.9703 5.60273 22.452 5.56269 21.9161 5.77785H21.9152C21.3516 6.00401 5.96038 12.6058 5.33382 12.8755C5.21986 12.9151 4.22458 13.2865 4.3271 14.1137C4.41862 14.8595 5.21854 15.1683 5.31622 15.204L9.22914 16.5438C9.48874 17.4079 10.4457 20.5962 10.6574 21.2773C10.7894 21.7019 11.0045 22.2598 11.3816 22.3747C11.7125 22.5023 12.0416 22.3857 12.2546 22.2185L14.6469 19.9995L18.5087 23.0113L18.6007 23.0663C18.8629 23.1825 19.1142 23.2406 19.354 23.2406C19.5392 23.2406 19.717 23.2058 19.8868 23.1363C20.4654 22.8987 20.6969 22.3474 20.7211 22.2849L23.6057 7.29101C23.7817 6.49021 23.5371 6.08277 23.3003 5.88257ZM12.6801 17.0797L11.3601 20.5997L10.0401 16.1997L20.1601 8.71969L12.6801 17.0797Z" fill="white"/>
<rect x="0.98999" y="0.5" width="26.5099" height="26.5099" rx="4.5" stroke="white"/>
</svg>
