<svg width="29" height="28" viewBox="0 0 29 28" fill="none" xmlns="http://www.w3.org/2000/svg">
<path d="M23.1799 9.17821C22.9656 8.35999 22.3341 7.71568 21.5322 7.49701C20.0791 7.09961 14.2515 7.09961 14.2515 7.09961C14.2515 7.09961 8.42388 7.09961 6.97061 7.49701C6.16885 7.71568 5.53735 8.35999 5.32304 9.17821C4.93359 10.6611 4.93359 13.7552 4.93359 13.7552C4.93359 13.7552 4.93359 16.8492 5.32304 18.3323C5.53735 19.1505 6.16885 19.7948 6.97061 20.0136C8.42388 20.4109 14.2515 20.4109 14.2515 20.4109C14.2515 20.4109 20.0791 20.4109 21.5323 20.0136C22.3341 19.7948 22.9656 19.1505 23.18 18.3323C23.5694 16.8492 23.5694 13.7552 23.5694 13.7552C23.5694 13.7552 23.5694 10.6611 23.1799 9.17821ZM12.3455 16.5645V10.946L17.2163 13.7553L12.3455 16.5645Z" fill="white"/>
<rect x="0.996582" y="0.5" width="26.5099" height="26.5099" rx="4.5" stroke="white"/>
</svg>
